<svg width="64" height="32" viewBox="0 0 64 32" fill="none" xmlns="http://www.w3.org/2000/svg">
<g clip-path="url(#clip0_16_249)">
<path d="M11.613 9.45545C11.613 10.6417 11.2857 11.603 10.6313 12.3393C10.0279 13.0244 9.23024 13.367 8.23829 13.367C7.59403 13.367 6.96511 13.2034 6.35152 12.8762V11.1888C6.8833 11.4854 7.40484 11.6337 7.91616 11.6337C8.47861 11.6337 8.91323 11.4496 9.22002 11.0814C9.53703 10.7235 9.69554 10.2224 9.69554 9.57817V4.6235L11.613 3.59575V9.45545Z" fill="white" style="fill:white;fill-opacity:1;"/>
<path d="M21.6658 8.55042V10.4065H19.779C19.7074 11.3269 19.2984 12.0632 18.5518 12.6154C17.9383 13.0654 17.2224 13.2903 16.4043 13.2903C15.7601 13.2903 15.1311 13.1165 14.5175 12.7688V11.0968C15.0698 11.4138 15.622 11.5723 16.1742 11.5723C16.6037 11.5723 16.9821 11.4547 17.3093 11.2195C17.6468 10.9843 17.8309 10.7031 17.8616 10.3758C17.7798 10.3656 17.6519 10.3554 17.4781 10.3451C17.3042 10.3247 17.1713 10.3094 17.0793 10.2991C16.0259 10.1866 15.2129 9.77247 14.6403 9.05662C14.1596 8.45327 13.9193 7.72208 13.9193 6.86307C13.9193 5.73817 14.2261 4.84848 14.8397 4.19399C15.3817 3.62131 16.0975 3.33498 16.9872 3.33498C17.8974 3.33498 18.6081 3.62643 19.1194 4.20933C19.5591 4.71042 19.779 5.36491 19.779 6.17279V8.55042H21.6658ZM17.8616 6.14211C17.8616 5.46717 17.5701 5.1297 16.9872 5.1297C16.21 5.1297 15.8214 5.68704 15.8214 6.80171C15.8214 7.79367 16.2714 8.34589 17.1713 8.45838C17.3145 8.48906 17.5445 8.51462 17.8616 8.53508V6.14211Z" fill="white" style="fill:white;fill-opacity:1;"/>
<path d="M20.7478 10.4065V8.55042H22.3738C22.7624 8.55042 23.0385 8.46861 23.2021 8.30498C23.376 8.13114 23.4629 7.8448 23.4629 7.44597V5.42115L25.3957 4.40874V7.44597C25.3957 7.8448 25.4775 8.13114 25.6411 8.30498C25.8047 8.46861 26.0808 8.55042 26.4694 8.55042H27.5125C27.9011 8.55042 28.1772 8.46861 28.3409 8.30498C28.5045 8.13114 28.5863 7.8448 28.5863 7.44597V5.02232L30.5191 3.99458V7.44597C30.5191 7.8448 30.6009 8.13114 30.7645 8.30498C30.9384 8.46861 31.2196 8.55042 31.6082 8.55042H32.6513C33.0399 8.55042 33.316 8.46861 33.4796 8.30498C33.6432 8.13114 33.725 7.8448 33.725 7.44597V4.60816L35.6578 3.59575V7.20054C35.6578 7.6914 35.755 8.0391 35.9493 8.24363C36.1538 8.44815 36.4913 8.55042 36.9617 8.55042H38.3729V10.4065H36.8543C35.9953 10.4065 35.305 10.1611 34.7835 9.6702C34.3233 10.1508 33.7046 10.3963 32.9274 10.4065H31.4088C30.652 10.4065 30.0333 10.1815 29.5527 9.73156C29.113 10.1713 28.5301 10.3963 27.804 10.4065H26.2854C25.5286 10.4065 24.9099 10.1815 24.4293 9.73156C23.9486 10.1815 23.33 10.4065 22.5732 10.4065H20.7478Z" fill="white" style="fill:white;fill-opacity:1;"/>
<path d="M40.4571 2.04646C40.1503 2.04646 39.9048 1.95442 39.7208 1.77034C39.5367 1.58627 39.4446 1.33572 39.4446 1.01871C39.4446 0.722142 39.5367 0.481823 39.7208 0.297749C39.9048 0.113674 40.1503 0.021637 40.4571 0.021637C40.7638 0.021637 41.0042 0.113674 41.178 0.297749C41.3621 0.471597 41.4541 0.711916 41.4541 1.01871C41.4541 1.70387 41.1218 2.04646 40.4571 2.04646ZM42.9114 8.55042H44.2919V10.4065H42.7273C41.9808 10.4065 41.3621 10.2071 40.8712 9.80826C40.3804 10.2071 39.7617 10.4065 39.0151 10.4065H37.4505V8.55042H38.8311C39.2197 8.55042 39.4958 8.46861 39.6594 8.30498C39.823 8.13114 39.9048 7.8448 39.9048 7.44597V4.60816L41.8376 3.59575V7.44597C41.8376 7.8448 41.9194 8.13114 42.083 8.30498C42.2467 8.46861 42.5228 8.55042 42.9114 8.55042Z" fill="white" style="fill:white;fill-opacity:1;"/>
<path d="M43.3676 10.4065V8.55042H44.7482C45.1368 8.55042 45.4129 8.46861 45.5765 8.30498C45.7401 8.13114 45.8219 7.8448 45.8219 7.44597V4.60816L47.7547 3.59575V7.53801C47.7547 8.46861 47.4684 9.19468 46.8957 9.71622C46.3946 10.1764 45.7401 10.4065 44.9322 10.4065H43.3676ZM44.1959 13.8272C43.8892 13.8272 43.6437 13.7352 43.4597 13.5511C43.2756 13.367 43.1835 13.1165 43.1835 12.7995C43.1835 12.1348 43.521 11.8024 44.1959 11.8024C44.5027 11.8024 44.7431 11.8893 44.9169 12.0632C45.101 12.2472 45.193 12.4927 45.193 12.7995C45.193 13.4846 44.8607 13.8272 44.1959 13.8272ZM46.5582 13.8272C46.2514 13.8272 46.006 13.7352 45.8219 13.5511C45.6379 13.367 45.5458 13.1165 45.5458 12.7995C45.5458 12.1348 45.8833 11.8024 46.5582 11.8024C46.865 11.8024 47.1053 11.8893 47.2792 12.0632C47.4633 12.2472 47.5553 12.4927 47.5553 12.7995C47.5553 13.4846 47.2229 13.8272 46.5582 13.8272Z" fill="white" style="fill:white;fill-opacity:1;"/>
<path d="M49.2841 10.4065L50.2505 8.55042H52.6742C53.1957 8.55042 53.4565 8.24874 53.4565 7.64538C53.4565 6.51026 52.9145 5.64102 51.8305 5.03766L52.7815 3.41167C54.52 4.43431 55.3893 5.85577 55.3893 7.67606C55.3893 9.49635 54.6018 10.4065 53.027 10.4065H49.2841Z" fill="white" style="fill:white;fill-opacity:1;"/>
<path d="M3.22897 31.0433C2.22168 31.0433 1.43169 30.6777 0.859014 29.9465C0.286338 29.2153 0 28.2106 0 26.9323C0 26.1091 0.132943 25.3907 0.398828 24.7771C0.669826 24.1584 1.04564 23.6803 1.52628 23.3428C2.01204 23.0054 2.58215 22.8366 3.23664 22.8366C3.96271 22.8366 4.56351 23.0872 5.03904 23.5883V20.5741L6.76473 19.7841V30.8592H5.03904V30.2303C4.61976 30.7723 4.0164 31.0433 3.22897 31.0433ZM3.49741 29.4096C3.84 29.4096 4.13912 29.3406 4.39478 29.2025C4.65555 29.0645 4.8703 28.8625 5.03904 28.5966V25.2603C4.8703 25.0148 4.64788 24.8205 4.37177 24.6774C4.10077 24.5342 3.80932 24.4626 3.49741 24.4626C2.93496 24.4626 2.49779 24.6748 2.18588 25.0992C1.87909 25.5236 1.7257 26.1346 1.7257 26.9323C1.7257 27.4436 1.79728 27.8833 1.94045 28.2515C2.08362 28.6196 2.28815 28.906 2.55403 29.1105C2.81992 29.3099 3.13438 29.4096 3.49741 29.4096Z" fill="white" style="fill:white;fill-opacity:1;"/>
<path d="M12.3601 31.0433C11.6187 31.0433 10.9795 30.872 10.4426 30.5294C9.90574 30.1868 9.49413 29.7087 9.20779 29.0952C8.92146 28.4765 8.77829 27.7555 8.77829 26.9323C8.77829 26.0784 8.92657 25.3472 9.22313 24.7387C9.5197 24.1252 9.93642 23.6547 10.4733 23.3275C11.0102 23.0003 11.6391 22.8366 12.3601 22.8366C12.9788 22.8366 13.5412 22.9696 14.0474 23.2355C14.5587 23.5013 14.9652 23.9104 15.2669 24.4626C15.5686 25.0097 15.7194 25.7077 15.7194 26.5565C15.7194 26.6894 15.7169 26.8479 15.7118 27.032C15.7066 27.211 15.6913 27.3925 15.6657 27.5765H10.4886C10.5193 27.9754 10.6139 28.3231 10.7724 28.6196C10.936 28.9162 11.1534 29.1488 11.4244 29.3176C11.6954 29.4812 12.0149 29.563 12.3831 29.563C12.741 29.563 13.058 29.5042 13.3341 29.3866C13.6102 29.2639 13.8736 29.0696 14.1241 28.8037L15.1212 29.8545C14.7991 30.2073 14.4053 30.4936 13.94 30.7135C13.4799 30.9333 12.9532 31.0433 12.3601 31.0433ZM10.4963 26.1883H14.0321C14.0167 25.8151 13.94 25.4878 13.802 25.2066C13.669 24.9254 13.4799 24.7081 13.2344 24.5547C12.989 24.3962 12.6899 24.3169 12.3371 24.3169C11.8462 24.3169 11.4269 24.4703 11.0792 24.7771C10.7366 25.0839 10.5423 25.5543 10.4963 26.1883Z" fill="white" style="fill:white;fill-opacity:1;"/>
<path d="M21.0784 31.0433C20.337 31.0433 19.6979 30.872 19.161 30.5294C18.6241 30.1868 18.2125 29.7087 17.9262 29.0952C17.6398 28.4765 17.4967 27.7555 17.4967 26.9323C17.4967 26.0784 17.6449 25.3472 17.9415 24.7387C18.2381 24.1252 18.6548 23.6547 19.1917 23.3275C19.7286 23.0003 20.3575 22.8366 21.0784 22.8366C21.6971 22.8366 22.2596 22.9696 22.7658 23.2355C23.2771 23.5013 23.6836 23.9104 23.9853 24.4626C24.287 25.0097 24.4378 25.7077 24.4378 26.5565C24.4378 26.6894 24.4352 26.8479 24.4301 27.032C24.425 27.211 24.4097 27.3925 24.3841 27.5765H19.207C19.2377 27.9754 19.3323 28.3231 19.4908 28.6196C19.6544 28.9162 19.8717 29.1488 20.1427 29.3176C20.4137 29.4812 20.7333 29.563 21.1014 29.563C21.4594 29.563 21.7764 29.5042 22.0525 29.3866C22.3286 29.2639 22.5919 29.0696 22.8425 28.8037L23.8396 29.8545C23.5174 30.2073 23.1237 30.4936 22.6584 30.7135C22.1982 30.9333 21.6716 31.0433 21.0784 31.0433ZM19.2147 26.1883H22.7504C22.7351 25.8151 22.6584 25.4878 22.5204 25.2066C22.3874 24.9254 22.1982 24.7081 21.9528 24.5547C21.7074 24.3962 21.4082 24.3169 21.0554 24.3169C20.5646 24.3169 20.1453 24.4703 19.7976 24.7771C19.455 25.0839 19.2607 25.5543 19.2147 26.1883Z" fill="white" style="fill:white;fill-opacity:1;"/>
<path d="M26.4498 30.8592V23.0207H28.1678V23.7877C28.4132 23.4656 28.7073 23.2278 29.0498 23.0744C29.3975 22.9159 29.7938 22.8366 30.2387 22.8366C31.1437 22.8366 31.8314 23.1127 32.3018 23.665C32.7722 24.2172 33.0074 25.0276 33.0074 26.0963V30.8592H31.2817V26.4107C31.2817 25.7563 31.1565 25.2679 30.9059 24.9458C30.6605 24.6237 30.2872 24.4626 29.7861 24.4626C29.2441 24.4626 28.8376 24.6211 28.5666 24.9381C28.3008 25.2552 28.1678 25.7358 28.1678 26.3801V30.8592H26.4498Z" fill="white" style="fill:white;fill-opacity:1;"/>
<path d="M37.8475 31.0433C37.2595 31.0433 36.6945 30.918 36.1525 30.6675C35.6105 30.4118 35.1759 30.0718 34.8487 29.6474L35.9991 28.6657C36.2701 28.9469 36.5744 29.1693 36.9118 29.3329C37.2493 29.4965 37.5791 29.5784 37.9012 29.5784C38.3103 29.5784 38.6273 29.5068 38.8523 29.3636C39.0773 29.2153 39.1897 29.0082 39.1897 28.7424C39.1897 28.5787 39.1386 28.4304 39.0364 28.2975C38.9341 28.1595 38.7551 28.024 38.4995 27.891C38.2438 27.7581 37.891 27.6072 37.441 27.4385C36.5616 27.1164 35.9378 26.7687 35.5696 26.3954C35.2015 26.017 35.0174 25.5441 35.0174 24.9765C35.0174 24.3374 35.2731 23.8209 35.7844 23.4272C36.2957 23.0335 36.9604 22.8366 37.7785 22.8366C38.3358 22.8366 38.8497 22.944 39.3201 23.1588C39.7957 23.3684 40.2047 23.6726 40.5473 24.0715L39.4045 25.0148C38.9392 24.5393 38.387 24.3016 37.7478 24.3016C37.4053 24.3016 37.1317 24.368 36.9272 24.501C36.7226 24.6288 36.6204 24.8001 36.6204 25.0148C36.6204 25.2296 36.738 25.4213 36.9732 25.5901C37.2135 25.7537 37.6532 25.9454 38.2924 26.1653C38.8753 26.3596 39.3508 26.5769 39.719 26.8172C40.0922 27.0576 40.3632 27.3337 40.532 27.6456C40.7058 27.9575 40.7927 28.318 40.7927 28.727C40.7927 29.448 40.5294 30.0155 40.0027 30.4297C39.4812 30.8388 38.7628 31.0433 37.8475 31.0433Z" fill="white" style="fill:white;fill-opacity:1;"/>
<path d="M45.3656 31.0433C44.4606 31.0433 43.7703 30.7672 43.2948 30.2149C42.8192 29.6627 42.5815 28.8548 42.5815 27.7913V23.0207H44.2995V27.4538C44.2995 28.1185 44.4222 28.612 44.6676 28.9341C44.9182 29.2511 45.294 29.4096 45.7951 29.4096C46.3422 29.4096 46.7487 29.2511 47.0146 28.9341C47.2805 28.612 47.4134 28.1288 47.4134 27.4845V23.0207H49.1391V30.8592H47.4134V30.1229C47.1731 30.4297 46.8816 30.6598 46.5391 30.8132C46.2016 30.9666 45.8104 31.0433 45.3656 31.0433Z" fill="white" style="fill:white;fill-opacity:1;"/>
<path d="M51.6312 30.8592V23.0207H53.3492V23.9257C53.5026 23.5883 53.7327 23.3224 54.0395 23.1281C54.3514 22.9338 54.694 22.8366 55.0672 22.8366C55.5939 22.8366 56.0387 23.0079 56.4018 23.3505L56.164 24.9381C55.9697 24.7848 55.7754 24.6748 55.5811 24.6083C55.3868 24.5419 55.1721 24.5086 54.9369 24.5086C54.6096 24.5086 54.3284 24.5905 54.0932 24.7541C53.858 24.9177 53.6739 25.1503 53.541 25.452C53.4131 25.7537 53.3492 26.1116 53.3492 26.5258V30.8592H51.6312Z" fill="white" style="fill:white;fill-opacity:1;"/>
<path d="M60.6406 31.0433C59.8992 31.0433 59.2601 30.872 58.7232 30.5294C58.1863 30.1868 57.7747 29.7087 57.4884 29.0952C57.202 28.4765 57.0589 27.7555 57.0589 26.9323C57.0589 26.0784 57.2071 25.3472 57.5037 24.7387C57.8003 24.1252 58.217 23.6547 58.7539 23.3275C59.2908 23.0003 59.9197 22.8366 60.6406 22.8366C61.2593 22.8366 61.8218 22.9696 62.328 23.2355C62.8393 23.5013 63.2458 23.9104 63.5475 24.4626C63.8492 25.0097 64 25.7077 64 26.5565C64 26.6894 63.9974 26.8479 63.9923 27.032C63.9872 27.211 63.9719 27.3925 63.9463 27.5765H58.7692C58.7999 27.9754 58.8945 28.3231 59.053 28.6196C59.2166 28.9162 59.4339 29.1488 59.7049 29.3176C59.9759 29.4812 60.2955 29.563 60.6637 29.563C61.0216 29.563 61.3386 29.5042 61.6147 29.3866C61.8908 29.2639 62.1541 29.0696 62.4047 28.8037L63.4018 29.8545C63.0796 30.2073 62.6859 30.4936 62.2206 30.7135C61.7604 30.9333 61.2338 31.0433 60.6406 31.0433ZM58.7769 26.1883H62.3127C62.2973 25.8151 62.2206 25.4878 62.0826 25.2066C61.9496 24.9254 61.7604 24.7081 61.515 24.5547C61.2696 24.3962 60.9704 24.3169 60.6176 24.3169C60.1268 24.3169 59.7075 24.4703 59.3598 24.7771C59.0172 25.0839 58.8229 25.5543 58.7769 26.1883Z" fill="white" style="fill:white;fill-opacity:1;"/>
</g>
<defs>
<clipPath id="clip0_16_249">
<rect width="64" height="31.0216" fill="white" style="fill:white;fill-opacity:1;" transform="translate(0 0.021637)"/>
</clipPath>
</defs>
</svg>
