<svg width="64" height="32" viewBox="0 0 64 32" fill="none" xmlns="http://www.w3.org/2000/svg">
<g clip-path="url(#clip0_3_6)">
<path d="M11.613 9.43381C11.613 10.6201 11.2857 11.5813 10.6313 12.3176C10.0279 13.0028 9.23024 13.3454 8.23829 13.3454C7.59403 13.3454 6.96511 13.1818 6.35152 12.8545V11.1672C6.8833 11.4637 7.40484 11.612 7.91616 11.612C8.47861 11.612 8.91323 11.428 9.22002 11.0598C9.53703 10.7019 9.69554 10.2008 9.69554 9.55653V4.60186L11.613 3.57411V9.43381Z" fill="black" style="fill:black;fill-opacity:1;"/>
<path d="M21.6658 8.52878V10.3849H19.779C19.7074 11.3052 19.2984 12.0415 18.5518 12.5938C17.9383 13.0437 17.2224 13.2687 16.4043 13.2687C15.7601 13.2687 15.1311 13.0948 14.5175 12.7472V11.0751C15.0698 11.3922 15.622 11.5507 16.1742 11.5507C16.6037 11.5507 16.9821 11.4331 17.3093 11.1979C17.6468 10.9627 17.8309 10.6814 17.8616 10.3542C17.7798 10.344 17.6519 10.3337 17.4781 10.3235C17.3042 10.3031 17.1713 10.2877 17.0793 10.2775C16.0259 10.165 15.2129 9.75083 14.6403 9.03498C14.1596 8.43163 13.9193 7.70044 13.9193 6.84143C13.9193 5.71653 14.2261 4.82684 14.8397 4.17235C15.3817 3.59968 16.0975 3.31334 16.9872 3.31334C17.8974 3.31334 18.6081 3.60479 19.1194 4.18769C19.5591 4.68878 19.779 5.34327 19.779 6.15115V8.52878H21.6658ZM17.8616 6.12047C17.8616 5.44553 17.5701 5.10806 16.9872 5.10806C16.21 5.10806 15.8214 5.6654 15.8214 6.78007C15.8214 7.77203 16.2714 8.32425 17.1713 8.43674C17.3145 8.46742 17.5445 8.49299 17.8616 8.51344V6.12047Z" fill="black" style="fill:black;fill-opacity:1;"/>
<path d="M20.7478 10.3849V8.52878H22.3738C22.7624 8.52878 23.0385 8.44697 23.2021 8.28335C23.376 8.1095 23.4629 7.82316 23.4629 7.42433V5.39952L25.3957 4.38711V7.42433C25.3957 7.82316 25.4775 8.1095 25.6411 8.28335C25.8047 8.44697 26.0808 8.52878 26.4694 8.52878H27.5125C27.9011 8.52878 28.1772 8.44697 28.3409 8.28335C28.5045 8.1095 28.5863 7.82316 28.5863 7.42433V5.00069L30.5191 3.97294V7.42433C30.5191 7.82316 30.6009 8.1095 30.7645 8.28335C30.9384 8.44697 31.2196 8.52878 31.6082 8.52878H32.6513C33.0399 8.52878 33.316 8.44697 33.4796 8.28335C33.6432 8.1095 33.725 7.82316 33.725 7.42433V4.58652L35.6578 3.57411V7.1789C35.6578 7.66977 35.755 8.01746 35.9493 8.22199C36.1538 8.42652 36.4913 8.52878 36.9617 8.52878H38.3729V10.3849H36.8543C35.9953 10.3849 35.305 10.1394 34.7835 9.64857C34.3233 10.1292 33.7046 10.3746 32.9274 10.3849H31.4088C30.652 10.3849 30.0333 10.1599 29.5527 9.70992C29.113 10.1497 28.5301 10.3746 27.804 10.3849H26.2854C25.5286 10.3849 24.9099 10.1599 24.4293 9.70992C23.9486 10.1599 23.33 10.3849 22.5732 10.3849H20.7478Z" fill="black" style="fill:black;fill-opacity:1;"/>
<path d="M40.4571 2.02482C40.1503 2.02482 39.9048 1.93278 39.7208 1.74871C39.5367 1.56463 39.4446 1.31409 39.4446 0.997069C39.4446 0.700505 39.5367 0.460186 39.7208 0.276112C39.9048 0.0920372 40.1503 0 40.4571 0C40.7638 0 41.0042 0.0920372 41.178 0.276112C41.3621 0.44996 41.4541 0.690279 41.4541 0.997069C41.4541 1.68224 41.1218 2.02482 40.4571 2.02482ZM42.9114 8.52878H44.2919V10.3849H42.7273C41.9808 10.3849 41.3621 10.1854 40.8712 9.78662C40.3804 10.1854 39.7617 10.3849 39.0151 10.3849H37.4505V8.52878H38.8311C39.2197 8.52878 39.4958 8.44697 39.6594 8.28335C39.823 8.1095 39.9048 7.82316 39.9048 7.42433V4.58652L41.8376 3.57411V7.42433C41.8376 7.82316 41.9194 8.1095 42.083 8.28335C42.2467 8.44697 42.5228 8.52878 42.9114 8.52878Z" fill="black" style="fill:black;fill-opacity:1;"/>
<path d="M43.3676 10.3849V8.52878H44.7482C45.1368 8.52878 45.4129 8.44697 45.5765 8.28335C45.7401 8.1095 45.8219 7.82316 45.8219 7.42433V4.58652L47.7547 3.57411V7.51637C47.7547 8.44697 47.4684 9.17304 46.8957 9.69458C46.3946 10.1548 45.7401 10.3849 44.9322 10.3849H43.3676ZM44.1959 13.8056C43.8892 13.8056 43.6437 13.7135 43.4597 13.5295C43.2756 13.3454 43.1835 13.0948 43.1835 12.7778C43.1835 12.1131 43.521 11.7808 44.1959 11.7808C44.5027 11.7808 44.7431 11.8677 44.9169 12.0415C45.101 12.2256 45.193 12.471 45.193 12.7778C45.193 13.463 44.8607 13.8056 44.1959 13.8056ZM46.5582 13.8056C46.2514 13.8056 46.006 13.7135 45.8219 13.5295C45.6379 13.3454 45.5458 13.0948 45.5458 12.7778C45.5458 12.1131 45.8833 11.7808 46.5582 11.7808C46.865 11.7808 47.1053 11.8677 47.2792 12.0415C47.4633 12.2256 47.5553 12.471 47.5553 12.7778C47.5553 13.463 47.2229 13.8056 46.5582 13.8056Z" fill="black" style="fill:black;fill-opacity:1;"/>
<path d="M49.2841 10.3849L50.2505 8.52878H52.6742C53.1957 8.52878 53.4565 8.2271 53.4565 7.62375C53.4565 6.48862 52.9145 5.61938 51.8305 5.01603L52.7815 3.39004C54.52 4.41267 55.3893 5.83414 55.3893 7.65443C55.3893 9.47472 54.6018 10.3849 53.027 10.3849H49.2841Z" fill="black" style="fill:black;fill-opacity:1;"/>
<path d="M3.22897 31.0216C2.22168 31.0216 1.43169 30.6561 0.859014 29.9249C0.286338 29.1937 0 28.1889 0 26.9107C0 26.0874 0.132943 25.369 0.398828 24.7554C0.669826 24.1368 1.04564 23.6587 1.52628 23.3212C2.01204 22.9837 2.58215 22.815 3.23664 22.815C3.96271 22.815 4.56351 23.0655 5.03904 23.5666V20.5524L6.76473 19.7624V30.8376H5.03904V30.2086C4.61976 30.7506 4.0164 31.0216 3.22897 31.0216ZM3.49741 29.388C3.84 29.388 4.13912 29.319 4.39478 29.1809C4.65555 29.0428 4.8703 28.8409 5.03904 28.575V25.2386C4.8703 24.9932 4.64788 24.7989 4.37177 24.6557C4.10077 24.5126 3.80932 24.441 3.49741 24.441C2.93496 24.441 2.49779 24.6532 2.18588 25.0776C1.87909 25.502 1.7257 26.113 1.7257 26.9107C1.7257 27.422 1.79728 27.8617 1.94045 28.2298C2.08362 28.598 2.28815 28.8843 2.55403 29.0889C2.81992 29.2883 3.13438 29.388 3.49741 29.388Z" fill="black" style="fill:black;fill-opacity:1;"/>
<path d="M12.3601 31.0216C11.6187 31.0216 10.9795 30.8504 10.4426 30.5078C9.90574 30.1652 9.49413 29.6871 9.20779 29.0735C8.92146 28.4548 8.77829 27.7339 8.77829 26.9107C8.77829 26.0567 8.92657 25.3256 9.22313 24.7171C9.5197 24.1035 9.93642 23.6331 10.4733 23.3059C11.0102 22.9786 11.6391 22.815 12.3601 22.815C12.9788 22.815 13.5412 22.9479 14.0474 23.2138C14.5587 23.4797 14.9652 23.8888 15.2669 24.441C15.5686 24.9881 15.7194 25.686 15.7194 26.5348C15.7194 26.6678 15.7169 26.8263 15.7118 27.0104C15.7066 27.1893 15.6913 27.3708 15.6657 27.5549H10.4886C10.5193 27.9537 10.6139 28.3014 10.7724 28.598C10.936 28.8946 11.1534 29.1272 11.4244 29.2959C11.6954 29.4596 12.0149 29.5414 12.3831 29.5414C12.741 29.5414 13.058 29.4826 13.3341 29.365C13.6102 29.2423 13.8736 29.048 14.1241 28.7821L15.1212 29.8328C14.7991 30.1856 14.4053 30.472 13.94 30.6918C13.4799 30.9117 12.9532 31.0216 12.3601 31.0216ZM10.4963 26.1667H14.0321C14.0167 25.7934 13.94 25.4662 13.802 25.185C13.669 24.9037 13.4799 24.6864 13.2344 24.533C12.989 24.3745 12.6899 24.2953 12.3371 24.2953C11.8462 24.2953 11.4269 24.4487 11.0792 24.7554C10.7366 25.0622 10.5423 25.5326 10.4963 26.1667Z" fill="black" style="fill:black;fill-opacity:1;"/>
<path d="M21.0784 31.0216C20.337 31.0216 19.6979 30.8504 19.161 30.5078C18.6241 30.1652 18.2125 29.6871 17.9262 29.0735C17.6398 28.4548 17.4967 27.7339 17.4967 26.9107C17.4967 26.0567 17.6449 25.3256 17.9415 24.7171C18.2381 24.1035 18.6548 23.6331 19.1917 23.3059C19.7286 22.9786 20.3575 22.815 21.0784 22.815C21.6971 22.815 22.2596 22.9479 22.7658 23.2138C23.2771 23.4797 23.6836 23.8888 23.9853 24.441C24.287 24.9881 24.4378 25.686 24.4378 26.5348C24.4378 26.6678 24.4352 26.8263 24.4301 27.0104C24.425 27.1893 24.4097 27.3708 24.3841 27.5549H19.207C19.2377 27.9537 19.3323 28.3014 19.4908 28.598C19.6544 28.8946 19.8717 29.1272 20.1427 29.2959C20.4137 29.4596 20.7333 29.5414 21.1014 29.5414C21.4594 29.5414 21.7764 29.4826 22.0525 29.365C22.3286 29.2423 22.5919 29.048 22.8425 28.7821L23.8396 29.8328C23.5174 30.1856 23.1237 30.472 22.6584 30.6918C22.1982 30.9117 21.6716 31.0216 21.0784 31.0216ZM19.2147 26.1667H22.7504C22.7351 25.7934 22.6584 25.4662 22.5204 25.185C22.3874 24.9037 22.1982 24.6864 21.9528 24.533C21.7074 24.3745 21.4082 24.2953 21.0554 24.2953C20.5646 24.2953 20.1453 24.4487 19.7976 24.7554C19.455 25.0622 19.2607 25.5326 19.2147 26.1667Z" fill="black" style="fill:black;fill-opacity:1;"/>
<path d="M26.4498 30.8376V22.9991H28.1678V23.766C28.4132 23.4439 28.7073 23.2062 29.0498 23.0528C29.3975 22.8943 29.7938 22.815 30.2387 22.815C31.1437 22.815 31.8314 23.0911 32.3018 23.6433C32.7722 24.1956 33.0074 25.006 33.0074 26.0746V30.8376H31.2817V26.3891C31.2817 25.7346 31.1565 25.2463 30.9059 24.9242C30.6605 24.6021 30.2872 24.441 29.7861 24.441C29.2441 24.441 28.8376 24.5995 28.5666 24.9165C28.3008 25.2335 28.1678 25.7142 28.1678 26.3584V30.8376H26.4498Z" fill="black" style="fill:black;fill-opacity:1;"/>
<path d="M37.8475 31.0216C37.2595 31.0216 36.6945 30.8964 36.1525 30.6458C35.6105 30.3902 35.1759 30.0501 34.8487 29.6257L35.9991 28.644C36.2701 28.9252 36.5744 29.1477 36.9118 29.3113C37.2493 29.4749 37.5791 29.5567 37.9012 29.5567C38.3103 29.5567 38.6273 29.4851 38.8523 29.342C39.0773 29.1937 39.1897 28.9866 39.1897 28.7207C39.1897 28.5571 39.1386 28.4088 39.0364 28.2759C38.9341 28.1378 38.7551 28.0023 38.4995 27.8694C38.2438 27.7364 37.891 27.5856 37.441 27.4169C36.5616 27.0947 35.9378 26.747 35.5696 26.3738C35.2015 25.9954 35.0174 25.5224 35.0174 24.9549C35.0174 24.3157 35.2731 23.7993 35.7844 23.4056C36.2957 23.0119 36.9604 22.815 37.7785 22.815C38.3358 22.815 38.8497 22.9224 39.3201 23.1371C39.7957 23.3468 40.2047 23.651 40.5473 24.0498L39.4045 24.9932C38.9392 24.5177 38.387 24.2799 37.7478 24.2799C37.4053 24.2799 37.1317 24.3464 36.9272 24.4793C36.7226 24.6072 36.6204 24.7785 36.6204 24.9932C36.6204 25.208 36.738 25.3997 36.9732 25.5684C37.2135 25.7321 37.6532 25.9238 38.2924 26.1437C38.8753 26.338 39.3508 26.5553 39.719 26.7956C40.0922 27.0359 40.3632 27.312 40.532 27.6239C40.7058 27.9358 40.7927 28.2963 40.7927 28.7054C40.7927 29.4263 40.5294 29.9939 40.0027 30.4081C39.4812 30.8171 38.7628 31.0216 37.8475 31.0216Z" fill="black" style="fill:black;fill-opacity:1;"/>
<path d="M45.3656 31.0216C44.4606 31.0216 43.7703 30.7455 43.2948 30.1933C42.8192 29.6411 42.5815 28.8332 42.5815 27.7697V22.9991H44.2995V27.4322C44.2995 28.0969 44.4222 28.5903 44.6676 28.9125C44.9182 29.2295 45.294 29.388 45.7951 29.388C46.3422 29.388 46.7487 29.2295 47.0146 28.9125C47.2805 28.5903 47.4134 28.1071 47.4134 27.4629V22.9991H49.1391V30.8376H47.4134V30.1013C47.1731 30.4081 46.8816 30.6382 46.5391 30.7916C46.2016 30.9449 45.8104 31.0216 45.3656 31.0216Z" fill="black" style="fill:black;fill-opacity:1;"/>
<path d="M51.6312 30.8376V22.9991H53.3492V23.9041C53.5026 23.5666 53.7327 23.3007 54.0395 23.1064C54.3514 22.9121 54.694 22.815 55.0672 22.815C55.5939 22.815 56.0387 22.9863 56.4018 23.3289L56.164 24.9165C55.9697 24.7631 55.7754 24.6532 55.5811 24.5867C55.3868 24.5202 55.1721 24.487 54.9369 24.487C54.6096 24.487 54.3284 24.5688 54.0932 24.7324C53.858 24.8961 53.6739 25.1287 53.541 25.4304C53.4131 25.7321 53.3492 26.09 53.3492 26.5042V30.8376H51.6312Z" fill="black" style="fill:black;fill-opacity:1;"/>
<path d="M60.6406 31.0216C59.8992 31.0216 59.2601 30.8504 58.7232 30.5078C58.1863 30.1652 57.7747 29.6871 57.4884 29.0735C57.202 28.4548 57.0589 27.7339 57.0589 26.9107C57.0589 26.0567 57.2071 25.3256 57.5037 24.7171C57.8003 24.1035 58.217 23.6331 58.7539 23.3059C59.2908 22.9786 59.9197 22.815 60.6406 22.815C61.2593 22.815 61.8218 22.9479 62.328 23.2138C62.8393 23.4797 63.2458 23.8888 63.5475 24.441C63.8492 24.9881 64 25.686 64 26.5348C64 26.6678 63.9974 26.8263 63.9923 27.0104C63.9872 27.1893 63.9719 27.3708 63.9463 27.5549H58.7692C58.7999 27.9537 58.8945 28.3014 59.053 28.598C59.2166 28.8946 59.4339 29.1272 59.7049 29.2959C59.9759 29.4596 60.2955 29.5414 60.6637 29.5414C61.0216 29.5414 61.3386 29.4826 61.6147 29.365C61.8908 29.2423 62.1541 29.048 62.4047 28.7821L63.4018 29.8328C63.0796 30.1856 62.6859 30.472 62.2206 30.6918C61.7604 30.9117 61.2338 31.0216 60.6406 31.0216ZM58.7769 26.1667H62.3127C62.2973 25.7934 62.2206 25.4662 62.0826 25.185C61.9496 24.9037 61.7604 24.6864 61.515 24.533C61.2696 24.3745 60.9704 24.2953 60.6176 24.2953C60.1268 24.2953 59.7075 24.4487 59.3598 24.7554C59.0172 25.0622 58.8229 25.5326 58.7769 26.1667Z" fill="black" style="fill:black;fill-opacity:1;"/>
</g>
<defs>
<clipPath id="clip0_3_6">
<rect width="64" height="31.0216" fill="white" style="fill:white;fill-opacity:1;"/>
</clipPath>
</defs>
</svg>
