<svg width="103" height="59" viewBox="0 0 103 59" fill="none" xmlns="http://www.w3.org/2000/svg">
<g clip-path="url(#clip0_3_6)">
<path d="M19.6714 16.512C19.6714 18.368 19.1594 19.872 18.1354 21.024C17.1914 22.096 15.9434 22.632 14.3914 22.632C13.3834 22.632 12.3994 22.376 11.4394 21.864V19.224C12.2714 19.688 13.0874 19.92 13.8874 19.92C14.7674 19.92 15.4474 19.632 15.9274 19.056C16.4234 18.496 16.6714 17.712 16.6714 16.704V8.952L19.6714 7.344V16.512ZM35.3998 15.096V18H32.4478C32.3358 19.44 31.6958 20.592 30.5278 21.456C29.5678 22.16 28.4478 22.512 27.1678 22.512C26.1598 22.512 25.1758 22.24 24.2158 21.696V19.08C25.0798 19.576 25.9438 19.824 26.8078 19.824C27.4798 19.824 28.0718 19.64 28.5838 19.272C29.1118 18.904 29.3998 18.464 29.4478 17.952C29.3198 17.936 29.1198 17.92 28.8478 17.904C28.5758 17.872 28.3678 17.848 28.2238 17.832C26.5758 17.656 25.3038 17.008 24.4078 15.888C23.6558 14.944 23.2798 13.8 23.2798 12.456C23.2798 10.696 23.7598 9.304 24.7198 8.28C25.5678 7.384 26.6878 6.936 28.0798 6.936C29.5038 6.936 30.6158 7.392 31.4158 8.304C32.1038 9.088 32.4478 10.112 32.4478 11.376V15.096H35.3998ZM29.4478 11.328C29.4478 10.272 28.9918 9.744 28.0798 9.744C26.8638 9.744 26.2558 10.616 26.2558 12.36C26.2558 13.912 26.9598 14.776 28.3678 14.952C28.5918 15 28.9518 15.04 29.4478 15.072V11.328ZM33.9636 18V15.096H36.5076C37.1156 15.096 37.5476 14.968 37.8036 14.712C38.0756 14.44 38.2116 13.992 38.2116 13.368V10.2L41.2356 8.616V13.368C41.2356 13.992 41.3636 14.44 41.6196 14.712C41.8756 14.968 42.3076 15.096 42.9156 15.096H44.5476C45.1556 15.096 45.5876 14.968 45.8436 14.712C46.0996 14.44 46.2276 13.992 46.2276 13.368V9.576L49.2516 7.968V13.368C49.2516 13.992 49.3796 14.44 49.6356 14.712C49.9076 14.968 50.3476 15.096 50.9556 15.096H52.5876C53.1956 15.096 53.6276 14.968 53.8836 14.712C54.1396 14.44 54.2676 13.992 54.2676 13.368V8.928L57.2916 7.344V12.984C57.2916 13.752 57.4436 14.296 57.7476 14.616C58.0676 14.936 58.5956 15.096 59.3316 15.096H61.5396V18H59.1636C57.8196 18 56.7396 17.616 55.9236 16.848C55.2036 17.6 54.2356 17.984 53.0196 18H50.6436C49.4596 18 48.4916 17.648 47.7396 16.944C47.0516 17.632 46.1396 17.984 45.0036 18H42.6276C41.4436 18 40.4756 17.648 39.7236 16.944C38.9716 17.648 38.0036 18 36.8196 18H33.9636ZM64.8004 4.92C64.3204 4.92 63.9364 4.776 63.6484 4.488C63.3604 4.2 63.2164 3.808 63.2164 3.312C63.2164 2.848 63.3604 2.472 63.6484 2.184C63.9364 1.896 64.3204 1.752 64.8004 1.752C65.2804 1.752 65.6564 1.896 65.9284 2.184C66.2164 2.456 66.3604 2.832 66.3604 3.312C66.3604 4.384 65.8404 4.92 64.8004 4.92ZM68.6404 15.096H70.8004V18H68.3524C67.1844 18 66.2164 17.688 65.4484 17.064C64.6804 17.688 63.7124 18 62.5444 18H60.0964V15.096H62.2564C62.8644 15.096 63.2964 14.968 63.5524 14.712C63.8084 14.44 63.9364 13.992 63.9364 13.368V8.928L66.9604 7.344V13.368C66.9604 13.992 67.0884 14.44 67.3444 14.712C67.6004 14.968 68.0324 15.096 68.6404 15.096ZM69.3542 18V15.096H71.5142C72.1222 15.096 72.5542 14.968 72.8102 14.712C73.0662 14.44 73.1942 13.992 73.1942 13.368V8.928L76.2182 7.344V13.512C76.2182 14.968 75.7702 16.104 74.8742 16.92C74.0902 17.64 73.0662 18 71.8022 18H69.3542ZM70.6502 23.352C70.1702 23.352 69.7862 23.208 69.4982 22.92C69.2102 22.632 69.0662 22.24 69.0662 21.744C69.0662 20.704 69.5942 20.184 70.6502 20.184C71.1302 20.184 71.5062 20.32 71.7782 20.592C72.0662 20.88 72.2102 21.264 72.2102 21.744C72.2102 22.816 71.6902 23.352 70.6502 23.352ZM74.3462 23.352C73.8662 23.352 73.4822 23.208 73.1942 22.92C72.9062 22.632 72.7622 22.24 72.7622 21.744C72.7622 20.704 73.2902 20.184 74.3462 20.184C74.8262 20.184 75.2022 20.32 75.4742 20.592C75.7622 20.88 75.9062 21.264 75.9062 21.744C75.9062 22.816 75.3862 23.352 74.3462 23.352ZM78.6111 18L80.1231 15.096H83.9151C84.7311 15.096 85.1391 14.624 85.1391 13.68C85.1391 11.904 84.2911 10.544 82.5951 9.6L84.0831 7.056C86.8031 8.656 88.1631 10.88 88.1631 13.728C88.1631 16.576 86.9311 18 84.4671 18H78.6111Z" fill="black" style="fill:black;fill-opacity:1;"/>
<path d="M6.55391 50.288C4.97791 50.288 3.74191 49.716 2.84591 48.572C1.94991 47.428 1.50191 45.856 1.50191 43.856C1.50191 42.568 1.70991 41.444 2.12591 40.484C2.54991 39.516 3.13791 38.768 3.88991 38.24C4.64991 37.712 5.54191 37.448 6.56591 37.448C7.70191 37.448 8.64191 37.84 9.38591 38.624V33.908L12.0859 32.672V50H9.38591V49.016C8.72991 49.864 7.78591 50.288 6.55391 50.288ZM6.97391 47.732C7.50991 47.732 7.97791 47.624 8.37791 47.408C8.78591 47.192 9.12191 46.876 9.38591 46.46V41.24C9.12191 40.856 8.77391 40.552 8.34191 40.328C7.91791 40.104 7.46191 39.992 6.97391 39.992C6.09391 39.992 5.40991 40.324 4.92191 40.988C4.44191 41.652 4.20191 42.608 4.20191 43.856C4.20191 44.656 4.31391 45.344 4.53791 45.92C4.76191 46.496 5.08191 46.944 5.49791 47.264C5.91391 47.576 6.40591 47.732 6.97391 47.732ZM20.8403 50.288C19.6803 50.288 18.6803 50.02 17.8403 49.484C17.0003 48.948 16.3563 48.2 15.9083 47.24C15.4603 46.272 15.2363 45.144 15.2363 43.856C15.2363 42.52 15.4683 41.376 15.9323 40.424C16.3963 39.464 17.0483 38.728 17.8883 38.216C18.7283 37.704 19.7123 37.448 20.8403 37.448C21.8083 37.448 22.6883 37.656 23.4803 38.072C24.2803 38.488 24.9163 39.128 25.3883 39.992C25.8603 40.848 26.0963 41.94 26.0963 43.268C26.0963 43.476 26.0923 43.724 26.0843 44.012C26.0763 44.292 26.0523 44.576 26.0123 44.864H17.9123C17.9603 45.488 18.1083 46.032 18.3563 46.496C18.6123 46.96 18.9523 47.324 19.3763 47.588C19.8003 47.844 20.3003 47.972 20.8763 47.972C21.4363 47.972 21.9323 47.88 22.3643 47.696C22.7963 47.504 23.2083 47.2 23.6003 46.784L25.1603 48.428C24.6563 48.98 24.0403 49.428 23.3123 49.772C22.5923 50.116 21.7683 50.288 20.8403 50.288ZM17.9243 42.692H23.4563C23.4323 42.108 23.3123 41.596 23.0963 41.156C22.8883 40.716 22.5923 40.376 22.2083 40.136C21.8243 39.888 21.3563 39.764 20.8043 39.764C20.0363 39.764 19.3803 40.004 18.8363 40.484C18.3003 40.964 17.9963 41.7 17.9243 42.692ZM34.4809 50.288C33.3209 50.288 32.3209 50.02 31.4809 49.484C30.6409 48.948 29.9969 48.2 29.5489 47.24C29.1009 46.272 28.8769 45.144 28.8769 43.856C28.8769 42.52 29.1089 41.376 29.5729 40.424C30.0369 39.464 30.6889 38.728 31.5289 38.216C32.3689 37.704 33.3529 37.448 34.4809 37.448C35.4489 37.448 36.3289 37.656 37.1209 38.072C37.9209 38.488 38.5569 39.128 39.0289 39.992C39.5009 40.848 39.7369 41.94 39.7369 43.268C39.7369 43.476 39.7329 43.724 39.7249 44.012C39.7169 44.292 39.6929 44.576 39.6529 44.864H31.5529C31.6009 45.488 31.7489 46.032 31.9969 46.496C32.2529 46.96 32.5929 47.324 33.0169 47.588C33.4409 47.844 33.9409 47.972 34.5169 47.972C35.0769 47.972 35.5729 47.88 36.0049 47.696C36.4369 47.504 36.8489 47.2 37.2409 46.784L38.8009 48.428C38.2969 48.98 37.6809 49.428 36.9529 49.772C36.2329 50.116 35.4089 50.288 34.4809 50.288ZM31.5649 42.692H37.0969C37.0729 42.108 36.9529 41.596 36.7369 41.156C36.5289 40.716 36.2329 40.376 35.8489 40.136C35.4649 39.888 34.9969 39.764 34.4449 39.764C33.6769 39.764 33.0209 40.004 32.4769 40.484C31.9409 40.964 31.6369 41.7 31.5649 42.692ZM42.8848 50V37.736H45.5728V38.936C45.9568 38.432 46.4168 38.06 46.9528 37.82C47.4968 37.572 48.1168 37.448 48.8128 37.448C50.2288 37.448 51.3048 37.88 52.0408 38.744C52.7768 39.608 53.1448 40.876 53.1448 42.548V50H50.4448V43.04C50.4448 42.016 50.2488 41.252 49.8568 40.748C49.4728 40.244 48.8888 39.992 48.1048 39.992C47.2568 39.992 46.6208 40.24 46.1968 40.736C45.7808 41.232 45.5728 41.984 45.5728 42.992V50H42.8848ZM60.7176 50.288C59.7976 50.288 58.9136 50.092 58.0656 49.7C57.2176 49.3 56.5376 48.768 56.0256 48.104L57.8256 46.568C58.2496 47.008 58.7256 47.356 59.2536 47.612C59.7816 47.868 60.2976 47.996 60.8016 47.996C61.4416 47.996 61.9376 47.884 62.2896 47.66C62.6416 47.428 62.8176 47.104 62.8176 46.688C62.8176 46.432 62.7376 46.2 62.5776 45.992C62.4176 45.776 62.1376 45.564 61.7376 45.356C61.3376 45.148 60.7856 44.912 60.0816 44.648C58.7056 44.144 57.7296 43.6 57.1536 43.016C56.5776 42.424 56.2896 41.684 56.2896 40.796C56.2896 39.796 56.6896 38.988 57.4896 38.372C58.2896 37.756 59.3296 37.448 60.6096 37.448C61.4816 37.448 62.2856 37.616 63.0216 37.952C63.7656 38.28 64.4056 38.756 64.9416 39.38L63.1536 40.856C62.4256 40.112 61.5616 39.74 60.5616 39.74C60.0256 39.74 59.5976 39.844 59.2776 40.052C58.9576 40.252 58.7976 40.52 58.7976 40.856C58.7976 41.192 58.9816 41.492 59.3496 41.756C59.7256 42.012 60.4136 42.312 61.4136 42.656C62.3256 42.96 63.0696 43.3 63.6456 43.676C64.2296 44.052 64.6536 44.484 64.9176 44.972C65.1896 45.46 65.3256 46.024 65.3256 46.664C65.3256 47.792 64.9136 48.68 64.0896 49.328C63.2736 49.968 62.1496 50.288 60.7176 50.288ZM72.4802 50.288C71.0642 50.288 69.9842 49.856 69.2402 48.992C68.4962 48.128 68.1242 46.864 68.1242 45.2V37.736H70.8122V44.672C70.8122 45.712 71.0042 46.484 71.3882 46.988C71.7802 47.484 72.3682 47.732 73.1522 47.732C74.0082 47.732 74.6442 47.484 75.0602 46.988C75.4762 46.484 75.6842 45.728 75.6842 44.72V37.736H78.3842V50H75.6842V48.848C75.3082 49.328 74.8522 49.688 74.3162 49.928C73.7882 50.168 73.1762 50.288 72.4802 50.288ZM82.2833 50V37.736H84.9713V39.152C85.2113 38.624 85.5713 38.208 86.0513 37.904C86.5393 37.6 87.0753 37.448 87.6593 37.448C88.4833 37.448 89.1793 37.716 89.7473 38.252L89.3753 40.736C89.0713 40.496 88.7673 40.324 88.4633 40.22C88.1593 40.116 87.8233 40.064 87.4553 40.064C86.9433 40.064 86.5033 40.192 86.1353 40.448C85.7673 40.704 85.4793 41.068 85.2713 41.54C85.0713 42.012 84.9713 42.572 84.9713 43.22V50H82.2833ZM96.3793 50.288C95.2193 50.288 94.2193 50.02 93.3793 49.484C92.5393 48.948 91.8953 48.2 91.4473 47.24C90.9993 46.272 90.7753 45.144 90.7753 43.856C90.7753 42.52 91.0073 41.376 91.4713 40.424C91.9353 39.464 92.5873 38.728 93.4273 38.216C94.2673 37.704 95.2513 37.448 96.3793 37.448C97.3473 37.448 98.2273 37.656 99.0193 38.072C99.8193 38.488 100.455 39.128 100.927 39.992C101.399 40.848 101.635 41.94 101.635 43.268C101.635 43.476 101.631 43.724 101.623 44.012C101.615 44.292 101.591 44.576 101.551 44.864H93.4513C93.4993 45.488 93.6473 46.032 93.8953 46.496C94.1513 46.96 94.4913 47.324 94.9153 47.588C95.3393 47.844 95.8393 47.972 96.4153 47.972C96.9753 47.972 97.4713 47.88 97.9033 47.696C98.3353 47.504 98.7473 47.2 99.1393 46.784L100.699 48.428C100.195 48.98 99.5793 49.428 98.8513 49.772C98.1313 50.116 97.3073 50.288 96.3793 50.288ZM93.4633 42.692H98.9953C98.9713 42.108 98.8513 41.596 98.6353 41.156C98.4273 40.716 98.1313 40.376 97.7473 40.136C97.3633 39.888 96.8953 39.764 96.3433 39.764C95.5753 39.764 94.9193 40.004 94.3753 40.484C93.8393 40.964 93.5353 41.7 93.4633 42.692Z" fill="black" style="fill:black;fill-opacity:1;"/>
</g>
<defs>
<clipPath id="clip0_3_6">
<rect width="103" height="59" fill="white" style="fill:white;fill-opacity:1;"/>
</clipPath>
</defs>
</svg>
