<svg width="311" height="288" viewBox="0 0 311 288" fill="none" xmlns="http://www.w3.org/2000/svg">
<rect width="79.287" height="155.002" rx="7.14297" transform="matrix(0.978148 0.207912 -0.48481 0.87462 232.826 115.063)" fill="#424242" style="fill:#424242;fill:color(display-p3 0.2583 0.2583 0.2583);fill-opacity:1;"/>
<rect width="79.287" height="155.002" rx="11.4288" transform="matrix(0.978148 0.207912 -0.48481 0.87462 230.683 102.206)" fill="black" style="fill:black;fill-opacity:1;"/>
<rect width="70.7154" height="146.431" rx="7.85727" transform="matrix(0.978148 0.207912 -0.48481 0.87462 232.797 106.846)" fill="url(#paint0_linear_14_62)" style=""/>
<g clip-path="url(#clip0_14_62)">
<path d="M220.093 171.489C219.682 172.23 219.12 172.782 218.408 173.145C217.749 173.484 217.073 173.579 216.38 173.432C215.93 173.336 215.547 173.141 215.232 172.845L215.816 171.791C216.085 172.055 216.398 172.225 216.755 172.301C217.148 172.385 217.516 172.334 217.858 172.15C218.203 171.973 218.487 171.684 218.71 171.281L220.426 168.186L222.122 167.829L220.093 171.489Z" fill="white" style="fill:white;fill-opacity:1;"/>
<path d="M227.43 172.417L226.787 173.576L225.469 173.296C225.1 173.861 224.559 174.26 223.846 174.494C223.262 174.684 222.684 174.718 222.112 174.597C221.662 174.501 221.283 174.299 220.975 173.991L221.554 172.946C221.83 173.226 222.161 173.407 222.546 173.489C222.847 173.553 223.152 173.536 223.462 173.437C223.779 173.341 224.005 173.192 224.14 172.992C224.086 172.974 224 172.948 223.882 172.916C223.768 172.878 223.68 172.848 223.62 172.828C222.923 172.601 222.498 172.222 222.346 171.69C222.219 171.241 222.304 170.749 222.602 170.212C222.991 169.51 223.514 168.999 224.169 168.681C224.746 168.404 225.345 168.332 225.967 168.464C226.603 168.599 226.999 168.887 227.154 169.327C227.288 169.705 227.215 170.147 226.935 170.651L226.112 172.137L227.43 172.417ZM225.606 170.347C225.84 169.926 225.753 169.672 225.346 169.585C224.803 169.47 224.338 169.76 223.952 170.456C223.609 171.076 223.732 171.488 224.321 171.692C224.411 171.732 224.563 171.782 224.777 171.842L225.606 170.347Z" fill="white" style="fill:white;fill-opacity:1;"/>
<path d="M226.146 173.44L226.788 172.281L227.925 172.522C228.196 172.58 228.417 172.57 228.588 172.492C228.77 172.409 228.93 172.243 229.068 171.994L229.769 170.729L231.47 170.383L230.418 172.281C230.28 172.53 230.238 172.721 230.292 172.854C230.35 172.98 230.515 173.073 230.786 173.13L231.515 173.285C231.786 173.343 232.008 173.333 232.179 173.255C232.353 173.171 232.509 173.004 232.648 172.755L233.487 171.24L235.193 170.885L233.998 173.042C233.86 173.291 233.818 173.482 233.872 173.615C233.937 173.743 234.105 173.836 234.376 173.893L235.105 174.048C235.377 174.106 235.598 174.096 235.769 174.018C235.944 173.934 236.1 173.767 236.238 173.518L237.221 171.745L238.922 171.399L237.673 173.652C237.503 173.958 237.451 174.19 237.516 174.346C237.588 174.505 237.788 174.619 238.117 174.688L239.103 174.898L238.46 176.058L237.399 175.832C236.799 175.705 236.402 175.449 236.207 175.065C235.719 175.296 235.202 175.358 234.655 175.249L233.594 175.023C233.066 174.911 232.711 174.679 232.531 174.326C232.072 174.535 231.587 174.589 231.076 174.488L230.015 174.262C229.486 174.15 229.132 173.918 228.952 173.565C228.46 173.775 227.95 173.824 227.421 173.711L226.146 173.44Z" fill="white" style="fill:white;fill-opacity:1;"/>
<path d="M242.811 171.144C242.597 171.099 242.457 171.005 242.393 170.862C242.328 170.72 242.35 170.55 242.46 170.352C242.563 170.167 242.71 170.03 242.903 169.942C243.095 169.855 243.298 169.834 243.513 169.879C243.727 169.925 243.863 170.018 243.921 170.159C243.989 170.295 243.97 170.459 243.864 170.65C243.627 171.078 243.276 171.243 242.811 171.144ZM242.274 175.572L243.238 175.777L242.596 176.937L241.503 176.704C240.981 176.593 240.618 176.377 240.413 176.055C239.932 176.231 239.43 176.264 238.909 176.153L237.816 175.921L238.458 174.761L239.423 174.966C239.695 175.024 239.916 175.014 240.087 174.936C240.261 174.851 240.418 174.685 240.556 174.436L241.538 172.663L243.239 172.317L241.906 174.723C241.768 174.972 241.726 175.163 241.78 175.296C241.838 175.422 242.002 175.514 242.274 175.572Z" fill="white" style="fill:white;fill-opacity:1;"/>
<path d="M241.95 176.799L242.593 175.64L243.557 175.845C243.829 175.903 244.05 175.892 244.221 175.815C244.395 175.73 244.552 175.563 244.69 175.314L245.673 173.541L247.374 173.196L246.008 175.659C245.686 176.24 245.235 176.651 244.654 176.892C244.145 177.105 243.608 177.152 243.043 177.032L241.95 176.799ZM241.344 179.059C241.13 179.014 240.99 178.92 240.925 178.778C240.86 178.635 240.883 178.465 240.993 178.267C241.223 177.852 241.574 177.694 242.045 177.794C242.26 177.84 242.397 177.93 242.459 178.064C242.524 178.207 242.503 178.374 242.397 178.565C242.159 178.993 241.808 179.158 241.344 179.059ZM242.995 179.41C242.78 179.365 242.641 179.271 242.576 179.128C242.511 178.986 242.533 178.816 242.643 178.618C242.873 178.203 243.224 178.045 243.696 178.145C243.91 178.191 244.048 178.281 244.109 178.415C244.174 178.558 244.153 178.725 244.047 178.916C243.81 179.344 243.459 179.509 242.995 179.41Z" fill="white" style="fill:white;fill-opacity:1;"/>
<path d="M246.084 177.678L247.402 176.662L249.095 177.022C249.459 177.099 249.746 176.95 249.955 176.573C250.348 175.864 250.27 175.24 249.722 174.702L250.95 173.828C251.81 174.725 251.925 175.742 251.295 176.879C250.664 178.016 249.799 178.468 248.699 178.234L246.084 177.678Z" fill="white" style="fill:white;fill-opacity:1;"/>
<path d="M206.759 183.731C206.055 183.581 205.63 183.236 205.483 182.694C205.336 182.152 205.484 181.482 205.927 180.683C206.212 180.169 206.553 179.74 206.952 179.396C207.355 179.05 207.783 178.807 208.236 178.667C208.692 178.529 209.149 178.508 209.606 178.605C210.114 178.713 210.447 178.959 210.605 179.342L211.649 177.459L213.128 177.222L209.293 184.141L208.087 183.885L208.305 183.492C207.825 183.768 207.309 183.848 206.759 183.731ZM207.512 182.75C207.752 182.801 207.985 182.802 208.211 182.754C208.441 182.707 208.661 182.612 208.871 182.471L210.026 180.387C209.993 180.209 209.905 180.054 209.762 179.924C209.622 179.794 209.443 179.706 209.225 179.66C208.832 179.576 208.454 179.644 208.089 179.863C207.727 180.082 207.409 180.441 207.132 180.939C206.955 181.259 206.853 181.544 206.826 181.795C206.798 182.047 206.842 182.256 206.957 182.423C207.073 182.587 207.259 182.696 207.512 182.75Z" fill="white" style="fill:white;fill-opacity:1;"/>
<path d="M213.139 185.087C212.621 184.977 212.234 184.775 211.977 184.481C211.721 184.187 211.599 183.828 211.611 183.402C211.625 182.973 211.775 182.501 212.06 181.987C212.356 181.453 212.712 181.019 213.13 180.682C213.55 180.343 214.004 180.111 214.493 179.986C214.981 179.862 215.477 179.853 215.981 179.96C216.413 180.052 216.76 180.218 217.022 180.46C217.287 180.702 217.429 181.018 217.449 181.408C217.47 181.794 217.334 182.253 217.04 182.783C216.994 182.866 216.937 182.965 216.87 183.079C216.804 183.19 216.731 183.301 216.649 183.412L213.032 182.643C212.915 182.897 212.861 183.128 212.869 183.337C212.88 183.547 212.952 183.724 213.083 183.87C213.215 184.012 213.41 184.111 213.668 184.166C213.918 184.219 214.159 184.229 214.393 184.197C214.628 184.161 214.88 184.079 215.147 183.95L215.48 184.754C215.132 184.927 214.758 185.047 214.357 185.116C213.959 185.185 213.553 185.175 213.139 185.087ZM213.518 181.777L215.988 182.302C216.107 182.067 216.167 181.851 216.168 181.655C216.172 181.459 216.115 181.295 215.997 181.163C215.88 181.028 215.699 180.934 215.452 180.881C215.109 180.808 214.763 180.842 214.414 180.982C214.068 181.123 213.77 181.388 213.518 181.777Z" fill="white" style="fill:white;fill-opacity:1;"/>
<path d="M219.23 186.382C218.712 186.272 218.325 186.07 218.068 185.776C217.812 185.482 217.69 185.122 217.702 184.697C217.717 184.268 217.866 183.796 218.151 183.282C218.447 182.748 218.804 182.313 219.222 181.977C219.641 181.638 220.096 181.406 220.584 181.281C221.072 181.157 221.568 181.148 222.072 181.255C222.504 181.347 222.851 181.513 223.113 181.755C223.378 181.997 223.521 182.312 223.54 182.702C223.561 183.089 223.425 183.547 223.131 184.078C223.085 184.161 223.028 184.259 222.961 184.374C222.896 184.485 222.822 184.596 222.74 184.707L219.123 183.938C219.007 184.192 218.952 184.423 218.96 184.632C218.972 184.841 219.043 185.019 219.174 185.165C219.307 185.307 219.502 185.406 219.759 185.46C220.009 185.514 220.251 185.524 220.485 185.491C220.72 185.456 220.971 185.374 221.238 185.245L221.571 186.049C221.224 186.222 220.85 186.342 220.448 186.41C220.051 186.479 219.645 186.47 219.23 186.382ZM219.609 183.072L222.08 183.597C222.198 183.362 222.258 183.146 222.259 182.95C222.263 182.754 222.206 182.59 222.088 182.458C221.972 182.322 221.79 182.229 221.543 182.176C221.201 182.103 220.854 182.137 220.505 182.277C220.16 182.418 219.861 182.683 219.609 183.072Z" fill="white" style="fill:white;fill-opacity:1;"/>
<path d="M223.047 187.064L225.761 182.167L226.962 182.423L226.696 182.902C226.979 182.737 227.267 182.632 227.559 182.587C227.857 182.54 228.162 182.549 228.472 182.615C229.105 182.75 229.49 183.024 229.627 183.439C229.764 183.854 229.648 184.395 229.278 185.063L227.629 188.038L226.423 187.782L227.963 185.003C228.19 184.594 228.272 184.27 228.208 184.032C228.148 183.794 227.943 183.638 227.593 183.564C227.214 183.483 226.875 183.522 226.576 183.68C226.281 183.838 226.021 184.119 225.798 184.521L224.247 187.32L223.047 187.064Z" fill="white" style="fill:white;fill-opacity:1;"/>
<path d="M230.947 188.872C230.536 188.785 230.184 188.623 229.892 188.386C229.602 188.145 229.416 187.868 229.335 187.555L230.479 187.112C230.57 187.328 230.706 187.512 230.885 187.665C231.064 187.817 231.266 187.917 231.491 187.965C231.777 188.026 232.024 188.028 232.23 187.972C232.439 187.913 232.589 187.8 232.681 187.634C232.738 187.532 232.753 187.432 232.728 187.333C232.704 187.232 232.626 187.121 232.494 187C232.361 186.879 232.167 186.732 231.911 186.56C231.408 186.228 231.093 185.918 230.965 185.63C230.838 185.339 230.874 185.016 231.07 184.662C231.291 184.262 231.649 183.978 232.143 183.808C232.636 183.638 233.169 183.613 233.74 183.735C234.13 183.818 234.452 183.961 234.706 184.165C234.966 184.367 235.146 184.618 235.247 184.918L234.122 185.337C233.962 184.971 233.658 184.74 233.212 184.646C232.972 184.595 232.758 184.596 232.569 184.648C232.382 184.698 232.251 184.79 232.177 184.924C232.102 185.058 232.118 185.195 232.224 185.335C232.335 185.473 232.576 185.659 232.947 185.891C233.287 186.099 233.544 186.305 233.718 186.51C233.895 186.716 233.989 186.928 233.999 187.148C234.012 187.369 233.948 187.607 233.806 187.863C233.557 188.313 233.176 188.628 232.665 188.809C232.159 188.987 231.586 189.008 230.947 188.872Z" fill="white" style="fill:white;fill-opacity:1;"/>
<path d="M236.199 189.989C235.567 189.854 235.18 189.579 235.039 189.164C234.898 188.748 235.012 188.208 235.38 187.544L237.032 184.563L238.233 184.818L236.698 187.588C236.467 188.003 236.382 188.33 236.442 188.567C236.507 188.803 236.715 188.957 237.065 189.032C237.447 189.113 237.786 189.074 238.082 188.916C238.379 188.754 238.639 188.472 238.863 188.07L240.408 185.281L241.614 185.537L238.9 190.434L237.694 190.178L237.949 189.718C237.675 189.874 237.391 189.974 237.099 190.019C236.81 190.065 236.51 190.055 236.199 189.989Z" fill="white" style="fill:white;fill-opacity:1;"/>
<path d="M240.641 190.804L243.355 185.907L244.556 186.162L244.242 186.728C244.466 186.54 244.719 186.408 245.001 186.332C245.286 186.257 245.559 186.247 245.82 186.302C246.188 186.381 246.439 186.554 246.574 186.822L245.858 187.778C245.776 187.654 245.678 187.556 245.565 187.486C245.453 187.415 245.314 187.363 245.15 187.328C244.921 187.279 244.696 187.288 244.475 187.356C244.254 187.423 244.045 187.541 243.848 187.71C243.654 187.879 243.485 188.093 243.342 188.352L241.841 191.059L240.641 190.804Z" fill="white" style="fill:white;fill-opacity:1;"/>
<path d="M246.872 192.257C246.354 192.147 245.967 191.945 245.71 191.651C245.454 191.358 245.332 190.998 245.344 190.572C245.358 190.143 245.508 189.671 245.793 189.157C246.089 188.624 246.445 188.189 246.863 187.853C247.283 187.513 247.737 187.281 248.226 187.157C248.714 187.032 249.21 187.023 249.714 187.13C250.146 187.222 250.493 187.389 250.755 187.63C251.02 187.872 251.162 188.188 251.182 188.578C251.203 188.964 251.067 189.423 250.773 189.953C250.727 190.036 250.67 190.135 250.603 190.249C250.537 190.36 250.464 190.471 250.382 190.582L246.765 189.813C246.648 190.067 246.594 190.298 246.602 190.507C246.614 190.717 246.685 190.894 246.816 191.04C246.948 191.183 247.143 191.281 247.401 191.336C247.651 191.389 247.892 191.399 248.126 191.367C248.362 191.331 248.613 191.249 248.88 191.12L249.213 191.925C248.865 192.097 248.491 192.218 248.09 192.286C247.692 192.355 247.286 192.345 246.872 192.257ZM247.251 188.947L249.721 189.472C249.84 189.237 249.9 189.021 249.901 188.825C249.905 188.629 249.848 188.466 249.73 188.333C249.613 188.198 249.432 188.104 249.185 188.052C248.842 187.979 248.496 188.012 248.147 188.152C247.801 188.293 247.503 188.558 247.251 188.947Z" fill="white" style="fill:white;fill-opacity:1;"/>
</g>
<g filter="url(#filter0_bd_14_62)">
<g clip-path="url(#clip1_14_62)">
<rect x="1.6199" y="160.961" width="175.904" height="126.988" rx="10.994" transform="rotate(-18 1.6199 160.961)" fill="white" fill-opacity="0.6" style="fill:white;fill-opacity:0.6;" shape-rendering="crispEdges"/>
<path d="M22.0631 183.753L18.1098 171.586L25.6547 169.135L26.1682 170.715L20.459 172.57L21.6635 176.277L26.8321 174.598L27.3436 176.172L22.1751 177.852L23.8988 183.157L22.0631 183.753ZM34.4115 179.964C33.8332 180.152 33.2757 180.215 32.7389 180.153C32.2007 180.087 31.7281 179.893 31.321 179.57C30.9178 179.245 30.6191 178.784 30.4248 178.186C30.2575 177.671 30.2188 177.215 30.3087 176.818C30.3987 176.421 30.5804 176.071 30.854 175.767C31.1276 175.464 31.4563 175.195 31.84 174.961C32.2236 174.727 32.623 174.514 33.0379 174.322C33.5639 174.081 33.9908 173.886 34.3185 173.735C34.645 173.581 34.87 173.431 34.9936 173.286C35.1171 173.141 35.1442 172.961 35.0747 172.747L35.0612 172.706C34.8926 172.187 34.6154 171.833 34.2297 171.643C33.8479 171.451 33.3699 171.449 32.7956 171.636C32.1976 171.83 31.7694 172.116 31.511 172.493C31.2553 172.865 31.1143 173.233 31.0878 173.596L29.2949 173.758C29.3127 173.14 29.4565 172.598 29.726 172.134C29.9982 171.664 30.3587 171.271 30.8076 170.955C31.2552 170.634 31.7542 170.385 32.3047 170.206C32.6691 170.087 33.0694 170.005 33.5056 169.96C33.9446 169.909 34.3789 169.939 34.8087 170.049C35.2425 170.158 35.6424 170.384 36.0086 170.73C36.3734 171.071 36.6639 171.574 36.8801 172.24L38.849 178.299L37.1143 178.863L36.7089 177.615L36.6376 177.638C36.5974 177.906 36.4985 178.187 36.3408 178.484C36.1832 178.78 35.948 179.06 35.6352 179.324C35.3224 179.587 34.9145 179.801 34.4115 179.964ZM34.3344 178.413C34.8255 178.254 35.2138 178.02 35.4992 177.713C35.7887 177.404 35.9737 177.064 36.0542 176.692C36.1374 176.314 36.1204 175.946 36.0033 175.585L35.6211 174.409C35.5783 174.493 35.4749 174.592 35.3107 174.707C35.1492 174.816 34.96 174.928 34.7432 175.042C34.525 175.153 34.3122 175.259 34.1047 175.361C33.8959 175.46 33.7214 175.543 33.5813 175.61C33.2509 175.766 32.9598 175.941 32.7081 176.137C32.4604 176.331 32.2829 176.553 32.1756 176.803C32.071 177.047 32.0702 177.327 32.1732 177.644C32.316 178.084 32.5865 178.364 32.9846 178.484C33.3815 178.6 33.8314 178.577 34.3344 178.413ZM38.25 168.405L40.0263 167.828L43.1843 177.547C43.3825 178.157 43.4389 178.708 43.3535 179.2C43.2721 179.691 43.0509 180.115 42.69 180.473C42.333 180.83 41.8397 181.111 41.2099 181.315C41.1466 181.336 41.0872 181.355 41.0317 181.373C40.9723 181.393 40.9103 181.411 40.8456 181.427L40.3495 179.9C40.405 179.882 40.4545 179.866 40.4981 179.852C40.5377 179.839 40.5832 179.824 40.6347 179.808C41.0545 179.671 41.3208 179.46 41.4336 179.174C41.5517 178.89 41.5418 178.536 41.4041 178.113L38.25 168.405ZM38.6718 166.712C38.3629 166.812 38.0641 166.795 37.7753 166.661C37.4893 166.522 37.2993 166.308 37.2054 166.019C37.1101 165.726 37.138 165.441 37.2889 165.164C37.4425 164.882 37.6737 164.691 37.9827 164.591C38.2916 164.49 38.5891 164.51 38.8751 164.649C39.1638 164.783 39.3558 164.996 39.451 165.289C39.545 165.578 39.5151 165.864 39.3616 166.146C39.2106 166.423 38.9807 166.611 38.6718 166.712ZM45.381 176.177L42.4161 167.052L44.133 166.494L44.604 167.943L44.699 167.913C44.7058 167.367 44.8734 166.886 45.2019 166.468C45.533 166.046 45.9659 165.747 46.5006 165.573C46.6115 165.537 46.7435 165.499 46.8965 165.458C47.0536 165.416 47.1776 165.386 47.2686 165.37L47.8206 167.069C47.7429 167.072 47.6091 167.092 47.4192 167.127C47.228 167.159 47.0413 167.204 46.8591 167.263C46.4393 167.4 46.094 167.61 45.8232 167.895C45.555 168.175 45.3767 168.502 45.2883 168.877C45.1985 169.248 45.218 169.631 45.3467 170.027L47.1573 175.6L45.381 176.177ZM32.4913 202.446L28.5525 203.726L24.5992 191.559L28.6627 190.238C29.8549 189.851 30.9578 189.762 31.9716 189.971C32.9841 190.176 33.8654 190.658 34.6156 191.417C35.3684 192.171 35.9501 193.18 36.3606 194.443C36.7724 195.71 36.8946 196.875 36.7272 197.936C36.5637 198.997 36.1261 199.914 35.4144 200.688C34.7013 201.458 33.727 202.044 32.4913 202.446ZM29.867 201.525L31.8691 200.874C32.7959 200.573 33.5096 200.149 34.0102 199.601C34.5096 199.049 34.8036 198.391 34.8924 197.626C34.9799 196.858 34.8673 195.992 34.5546 195.03C34.2444 194.075 33.8288 193.315 33.3076 192.749C32.7904 192.181 32.1768 191.822 31.4668 191.672C30.7568 191.522 29.9582 191.591 29.0711 191.879L26.9561 192.566L29.867 201.525ZM40.4991 193.854L42.2595 199.272L40.4832 199.849L36.5299 187.682L38.2825 187.113L39.7534 191.64L39.8663 191.603C39.9206 191.042 40.1206 190.546 40.4662 190.114C40.8119 189.682 41.3392 189.351 42.0482 189.121C42.674 188.917 43.2623 188.868 43.8133 188.974C44.3683 189.078 44.8575 189.344 45.2809 189.771C45.707 190.193 46.0436 190.785 46.2907 191.545L48.1766 197.349L46.4003 197.926L44.5839 192.336C44.3664 191.667 44.0255 191.204 43.5613 190.947C43.0958 190.687 42.5561 190.657 41.9422 190.856C41.5223 190.993 41.175 191.204 40.9003 191.49C40.6294 191.775 40.455 192.121 40.3768 192.527C40.3013 192.928 40.3421 193.371 40.4991 193.854ZM55.0979 190.917L53.3626 185.576L55.1448 184.997L58.1098 194.122L56.3632 194.689L55.8497 193.109L55.7546 193.14C55.703 193.695 55.4983 194.211 55.1404 194.686C54.7852 195.156 54.265 195.502 53.5798 195.725C52.9937 195.915 52.433 195.955 51.8979 195.845C51.3654 195.729 50.8874 195.457 50.464 195.03C50.0445 194.601 49.7125 194.011 49.468 193.258L47.5821 187.454L49.3584 186.877L51.1748 192.467C51.3769 193.089 51.71 193.528 52.1743 193.784C52.6385 194.041 53.1459 194.079 53.6964 193.901C54.0291 193.792 54.3328 193.602 54.6075 193.329C54.8861 193.054 55.0797 192.713 55.1881 192.306C55.3005 191.897 55.2704 191.434 55.0979 190.917ZM60.5124 187.351L62.2728 192.769L60.4965 193.346L56.5432 181.179L58.2958 180.61L59.7667 185.137L59.8796 185.1C59.9339 184.54 60.1339 184.043 60.4795 183.611C60.8252 183.179 61.3525 182.848 62.0615 182.618C62.6873 182.415 63.2756 182.366 63.8266 182.471C64.3816 182.576 64.8708 182.841 65.2942 183.269C65.7204 183.691 66.057 184.282 66.304 185.042L68.1899 190.847L66.4136 191.424L64.5972 185.833C64.3797 185.164 64.0389 184.701 63.5746 184.445C63.1091 184.184 62.5694 184.154 61.9555 184.353C61.5356 184.49 61.1883 184.701 60.9136 184.988C60.6427 185.273 60.4683 185.618 60.3901 186.025C60.3146 186.426 60.3554 186.868 60.5124 187.351ZM70.5603 190.076L67.5954 180.951L69.3123 180.393L69.7833 181.843L69.8784 181.812C69.8851 181.267 70.0527 180.785 70.3812 180.368C70.7123 179.945 71.1452 179.647 71.6799 179.473C71.7908 179.437 71.9228 179.398 72.0759 179.357C72.2329 179.315 72.3569 179.286 72.4479 179.269L73 180.968C72.9223 180.972 72.7884 180.991 72.5985 181.027C72.4073 181.058 72.2206 181.103 72.0385 181.163C71.6186 181.299 71.2733 181.51 71.0025 181.795C70.7343 182.075 70.5561 182.402 70.4676 182.776C70.3779 183.147 70.3974 183.531 70.526 183.927L72.3367 189.499L70.5603 190.076ZM36.0696 223.364L34.121 223.997L34.5461 210.407L36.667 209.718L44.9987 220.463L43.0501 221.096L36.3751 212.256L36.2801 212.287L36.0696 223.364ZM34.8482 218.493L41.1693 216.439L41.6712 217.984L35.3501 220.038L34.8482 218.493ZM51.1446 210.84L49.6273 211.648C49.4931 211.464 49.3224 211.303 49.1154 211.164C48.9124 211.025 48.6687 210.935 48.3846 210.896C48.1004 210.857 47.7742 210.897 47.4058 211.017C46.9028 211.181 46.5197 211.43 46.2564 211.765C45.9918 212.096 45.9168 212.438 46.0313 212.79C46.1304 213.095 46.3231 213.304 46.6093 213.417C46.8955 213.53 47.3095 213.564 47.8511 213.519L49.4087 213.381C50.3114 213.302 51.0344 213.398 51.5775 213.668C52.1207 213.938 52.4971 214.396 52.7069 215.042C52.8845 215.588 52.8844 216.127 52.7065 216.658C52.5313 217.183 52.2018 217.658 51.7178 218.082C51.2379 218.505 50.6296 218.837 49.8929 219.076C48.8711 219.408 47.9666 219.461 47.1795 219.235C46.3911 219.005 45.7923 218.51 45.3833 217.75L47.0152 216.93C47.2676 217.343 47.5974 217.61 48.0048 217.732C48.4108 217.85 48.8812 217.822 49.4158 217.648C49.9981 217.459 50.4242 217.187 50.6942 216.832C50.9629 216.473 51.0401 216.118 50.9255 215.765C50.8329 215.48 50.6481 215.275 50.3711 215.15C50.0982 215.025 49.7278 214.983 49.2599 215.025L47.6053 215.189C46.6907 215.271 45.9606 215.167 45.415 214.876C44.8733 214.583 44.4969 214.112 44.2859 213.463C44.1109 212.924 44.1082 212.404 44.278 211.902C44.4477 211.4 44.7613 210.95 45.2186 210.552C45.6747 210.15 46.2454 209.838 46.9305 209.615C47.9167 209.294 48.7625 209.256 49.4678 209.5C50.1719 209.74 50.7308 210.186 51.1446 210.84ZM55.517 217.045L52.5521 207.92L54.269 207.362L54.74 208.811L54.835 208.781C54.8418 208.235 55.0094 207.754 55.3379 207.336C55.669 206.914 56.1019 206.615 56.6366 206.442C56.7475 206.405 56.8795 206.367 57.0325 206.326C57.1896 206.284 57.3136 206.254 57.4046 206.238L57.9566 207.937C57.8789 207.94 57.7451 207.96 57.5552 207.995C57.364 208.027 57.1773 208.072 56.9951 208.131C56.5753 208.268 56.23 208.478 55.9592 208.763C55.691 209.043 55.5127 209.37 55.4243 209.745C55.3345 210.116 55.354 210.499 55.4827 210.895L57.2933 216.468L55.517 217.045ZM37.5779 231.503L39.8057 230.779L46.7522 238.978L46.8948 238.932L47.6952 228.216L49.923 227.492L53.8763 239.659L52.1297 240.226L49.269 231.422L49.1561 231.459L48.4227 241.411L46.9732 241.882L40.528 234.255L40.4151 234.292L43.2778 243.102L41.5312 243.67L37.5779 231.503ZM59.1238 238.177C58.5456 238.365 57.9881 238.428 57.4512 238.366C56.9131 238.3 56.4405 238.105 56.0334 237.782C55.6302 237.458 55.3315 236.997 55.1372 236.398C54.9699 235.884 54.9312 235.428 55.0211 235.031C55.111 234.634 55.2928 234.283 55.5664 233.98C55.84 233.676 56.1686 233.408 56.5523 233.174C56.936 232.939 57.3353 232.726 57.7503 232.535C58.2763 232.294 58.7031 232.098 59.0309 231.948C59.3573 231.794 59.5824 231.644 59.7059 231.499C59.8295 231.353 59.8566 231.174 59.7871 230.96L59.7736 230.918C59.605 230.4 59.3278 230.045 58.9421 229.855C58.5603 229.664 58.0823 229.662 57.508 229.848C56.9099 230.043 56.4817 230.328 56.2234 230.706C55.9677 231.078 55.8266 231.445 55.8002 231.809L54.0073 231.971C54.0251 231.352 54.1688 230.811 54.4384 230.346C54.7106 229.877 55.0711 229.484 55.52 229.167C55.9675 228.847 56.4666 228.597 57.0171 228.418C57.3815 228.3 57.7818 228.218 58.218 228.173C58.6569 228.122 59.0913 228.152 59.5211 228.261C59.9549 228.37 60.3548 228.597 60.7209 228.942C61.0858 229.283 61.3763 229.787 61.5925 230.452L63.5614 236.512L61.8267 237.075L61.4213 235.828L61.35 235.851C61.3098 236.118 61.2109 236.4 61.0532 236.696C60.8956 236.993 60.6603 237.273 60.3475 237.536C60.0347 237.8 59.6268 238.014 59.1238 238.177ZM59.0467 236.626C59.5378 236.466 59.9261 236.233 60.2116 235.925C60.501 235.617 60.686 235.276 60.7666 234.904C60.8497 234.527 60.8328 234.158 60.7157 233.798L60.3335 232.621C60.2907 232.705 60.1872 232.805 60.0231 232.919C59.8616 233.029 59.6724 233.141 59.4556 233.255C59.2374 233.365 59.0246 233.471 58.817 233.574C58.6082 233.672 58.4338 233.755 58.2937 233.823C57.9632 233.978 57.6722 234.154 57.4205 234.35C57.1727 234.544 56.9952 234.766 56.888 235.015C56.7834 235.259 56.7826 235.54 56.8856 235.857C57.0284 236.296 57.2989 236.576 57.697 236.696C58.0938 236.813 58.5437 236.789 59.0467 236.626ZM70.9269 238.112C70.2021 238.348 69.5474 238.455 68.9629 238.435C68.3823 238.413 67.8768 238.3 67.4464 238.093C67.016 237.887 66.6591 237.625 66.3758 237.305L67.698 236.179C67.8615 236.319 68.0639 236.457 68.3052 236.593C68.5517 236.732 68.852 236.82 69.206 236.858C69.5639 236.895 69.9884 236.834 70.4795 236.674C71.1528 236.456 71.6559 236.111 71.9887 235.639C72.3228 235.171 72.374 234.581 72.1424 233.868L71.5594 232.074L71.4466 232.111C71.4027 232.34 71.3183 232.606 71.1936 232.909C71.0727 233.211 70.8664 233.506 70.5745 233.793C70.2826 234.081 69.8574 234.315 69.299 234.497C68.5781 234.731 67.8739 234.773 67.1863 234.625C66.5013 234.471 65.8831 234.118 65.3315 233.566C64.7826 233.008 64.3505 232.245 64.0353 231.274C63.72 230.304 63.6141 229.419 63.7176 228.619C63.8251 227.818 64.1081 227.139 64.5667 226.583C65.024 226.022 65.619 225.623 66.3517 225.385C66.918 225.201 67.4064 225.148 67.8167 225.225C68.2257 225.297 68.5678 225.427 68.8429 225.614C69.122 225.799 69.3459 225.969 69.5146 226.124L69.6453 226.082L69.1647 224.603L70.9053 224.037L73.9359 233.364C74.1907 234.148 74.2177 234.851 74.0167 235.473C73.8158 236.094 73.4436 236.627 72.9003 237.07C72.361 237.513 71.7032 237.86 70.9269 238.112ZM69.2123 232.896C69.7232 232.73 70.1163 232.471 70.3916 232.119C70.6696 231.761 70.8269 231.329 70.8637 230.822C70.9032 230.31 70.8206 229.739 70.616 229.11C70.4165 228.496 70.1497 227.985 69.8157 227.577C69.4817 227.168 69.0959 226.891 68.6585 226.744C68.2198 226.593 67.741 226.602 67.2222 226.771C66.6875 226.944 66.287 227.228 66.0206 227.621C65.753 228.01 65.6046 228.47 65.5756 229C65.5505 229.53 65.6325 230.085 65.8217 230.667C66.016 231.266 66.2776 231.761 66.6065 232.153C66.9354 232.545 67.3192 232.81 67.758 232.948C68.2008 233.084 68.6856 233.067 69.2123 232.896ZM76.2685 226.393L78.0289 231.811L76.2526 232.388L72.2993 220.221L74.0519 219.652L75.5228 224.179L75.6356 224.142C75.6899 223.582 75.8899 223.085 76.2356 222.653C76.5813 222.221 77.1086 221.89 77.8176 221.66C78.4433 221.456 79.0317 221.408 79.5827 221.513C80.1377 221.618 80.6269 221.883 81.0503 222.311C81.4764 222.733 81.813 223.324 82.0601 224.084L83.946 229.888L82.1697 230.466L80.3533 224.875C80.1358 224.206 79.7949 223.743 79.3307 223.487C78.8651 223.226 78.3254 223.196 77.7115 223.395C77.2917 223.532 76.9444 223.743 76.6696 224.029C76.3988 224.315 76.2243 224.66 76.1462 225.067C76.0707 225.468 76.1115 225.91 76.2685 226.393ZM86.3164 229.118L83.3515 219.993L85.0684 219.435L85.5394 220.885L85.6344 220.854C85.6412 220.309 85.8088 219.827 86.1373 219.41C86.4684 218.987 86.9013 218.689 87.436 218.515C87.5469 218.479 87.6789 218.44 87.8319 218.399C87.989 218.357 88.113 218.328 88.204 218.311L88.756 220.01C88.6783 220.014 88.5445 220.033 88.3546 220.069C88.1634 220.1 87.9767 220.145 87.7945 220.205C87.3747 220.341 87.0294 220.552 86.7586 220.837C86.4904 221.117 86.3121 221.444 86.2237 221.818C86.1339 222.189 86.1534 222.573 86.2821 222.969L88.0927 228.541L86.3164 229.118ZM92.737 227.032L89.7721 217.907L91.5484 217.33L94.5133 226.455L92.737 227.032ZM90.2116 216.207C89.9027 216.308 89.6039 216.291 89.3152 216.157C89.0292 216.018 88.8392 215.804 88.7452 215.515C88.65 215.222 88.6778 214.937 88.8288 214.66C88.9823 214.378 89.2136 214.187 89.5225 214.087C89.8315 213.986 90.1289 214.006 90.415 214.145C90.7037 214.279 90.8957 214.492 90.9909 214.785C91.0848 215.074 91.055 215.36 90.9014 215.642C90.7505 215.919 90.5206 216.107 90.2116 216.207ZM97.0456 225.632L93.0924 213.465L94.8687 212.888L96.3376 217.409L96.4446 217.374C96.4858 217.151 96.5629 216.883 96.6759 216.57C96.7889 216.258 96.9874 215.952 97.2715 215.654C97.5543 215.352 97.9789 215.109 98.5453 214.925C99.2819 214.686 99.9999 214.658 100.699 214.843C101.398 215.027 102.026 215.416 102.583 216.01C103.143 216.603 103.584 217.393 103.904 218.379C104.224 219.365 104.335 220.264 104.235 221.076C104.134 221.884 103.858 222.571 103.408 223.138C102.956 223.701 102.361 224.102 101.625 224.341C101.07 224.522 100.586 224.576 100.173 224.504C99.7643 224.431 99.4203 224.302 99.1412 224.117C98.8621 223.932 98.6375 223.76 98.4675 223.6L98.319 223.649L98.7804 225.068L97.0456 225.632ZM97.3038 220.504C97.5123 221.146 97.7881 221.678 98.1313 222.1C98.4744 222.523 98.8666 222.814 99.3079 222.973C99.7479 223.127 100.223 223.122 100.734 222.956C101.265 222.783 101.663 222.499 101.928 222.102C102.192 221.701 102.336 221.227 102.36 220.681C102.387 220.133 102.302 219.554 102.104 218.944C101.908 218.342 101.642 217.831 101.304 217.411C100.97 216.99 100.578 216.699 100.127 216.539C99.6806 216.378 99.19 216.384 98.6553 216.557C98.1405 216.725 97.7479 216.999 97.4777 217.38C97.2114 217.76 97.0644 218.217 97.0366 218.752C97.0089 219.286 97.0979 219.87 97.3038 220.504ZM45.903 250.879L49.8563 263.046L48.0205 263.642L44.0673 251.475L45.903 250.879ZM56.9839 253.104L55.4666 253.912C55.3324 253.728 55.1617 253.567 54.9547 253.429C54.7516 253.289 54.508 253.199 54.2239 253.16C53.9397 253.121 53.6134 253.162 53.2451 253.281C52.7421 253.445 52.359 253.694 52.0957 254.029C51.8311 254.36 51.7561 254.702 51.8706 255.055C51.9697 255.36 52.1623 255.568 52.4486 255.681C52.7348 255.794 53.1487 255.828 53.6903 255.783L55.248 255.645C56.1507 255.566 56.8736 255.662 57.4168 255.932C57.96 256.202 58.3364 256.66 58.5462 257.306C58.7238 257.852 58.7236 258.391 58.5458 258.922C58.3706 259.447 58.041 259.922 57.5571 260.346C57.0772 260.769 56.4689 261.101 55.7322 261.34C54.7104 261.672 53.8059 261.725 53.0188 261.499C52.2303 261.269 51.6316 260.774 51.2225 260.014L52.8545 259.195C53.1069 259.607 53.4367 259.875 53.844 259.996C54.2501 260.114 54.7204 260.086 55.2551 259.912C55.8373 259.723 56.2634 259.451 56.5335 259.096C56.8022 258.737 56.8793 258.382 56.7648 258.029C56.6721 257.744 56.4873 257.539 56.2104 257.415C55.9375 257.289 55.5671 257.247 55.0992 257.29L53.4446 257.453C52.53 257.535 51.7999 257.431 51.2542 257.14C50.7126 256.847 50.3362 256.376 50.1252 255.727C49.9501 255.188 49.9475 254.668 50.1173 254.166C50.287 253.664 50.6005 253.214 51.0579 252.816C51.514 252.414 52.0846 252.102 52.7698 251.879C53.756 251.559 54.6018 251.52 55.3071 251.764C56.0112 252.004 56.5701 252.45 56.9839 253.104ZM61.3722 253.314L63.1326 258.732L61.3563 259.309L57.403 247.142L59.1556 246.573L60.6265 251.1L60.7394 251.063C60.7937 250.502 60.9936 250.006 61.3393 249.574C61.685 249.142 62.2123 248.811 62.9213 248.581C63.547 248.377 64.1354 248.328 64.6864 248.434C65.2414 248.538 65.7306 248.804 66.154 249.231C66.5801 249.653 66.9167 250.245 67.1638 251.005L69.0497 256.809L67.2734 257.386L65.457 251.796C65.2395 251.127 64.8986 250.664 64.4344 250.408C63.9688 250.147 63.4291 250.117 62.8152 250.316C62.3954 250.453 62.0481 250.664 61.7733 250.95C61.5025 251.235 61.328 251.581 61.2499 251.987C61.1744 252.388 61.2152 252.831 61.3722 253.314ZM74.1413 255.378C73.5631 255.566 73.0055 255.629 72.4687 255.567C71.9306 255.501 71.458 255.306 71.0508 254.983C70.6477 254.659 70.3489 254.198 70.1546 253.6C69.9873 253.085 69.9487 252.629 70.0386 252.232C70.1285 251.835 70.3103 251.485 70.5839 251.181C70.8575 250.878 71.1861 250.609 71.5698 250.375C71.9535 250.141 72.3528 249.928 72.7678 249.736C73.2938 249.495 73.7206 249.299 74.0484 249.149C74.3748 248.995 74.5998 248.845 74.7234 248.7C74.847 248.555 74.874 248.375 74.8045 248.161L74.791 248.12C74.6224 247.601 74.3453 247.246 73.9595 247.056C73.5778 246.865 73.0997 246.863 72.5255 247.049C71.9274 247.244 71.4992 247.53 71.2409 247.907C70.9852 248.279 70.8441 248.647 70.8177 249.01L69.0247 249.172C69.0426 248.553 69.1863 248.012 69.4558 247.548C69.7281 247.078 70.0886 246.685 70.5374 246.369C70.985 246.048 71.484 245.798 72.0346 245.62C72.3989 245.501 72.7992 245.419 73.2355 245.374C73.6744 245.323 74.1088 245.353 74.5386 245.463C74.9724 245.571 75.3723 245.798 75.7384 246.143C76.1033 246.485 76.3938 246.988 76.61 247.653L78.5789 253.713L76.8441 254.277L76.4388 253.029L76.3675 253.052C76.3273 253.319 76.2283 253.601 76.0707 253.897C75.913 254.194 75.6778 254.474 75.365 254.738C75.0522 255.001 74.6443 255.215 74.1413 255.378ZM74.0642 253.827C74.5553 253.667 74.9436 253.434 75.2291 253.127C75.5185 252.818 75.7035 252.478 75.784 252.106C75.8672 251.728 75.8503 251.359 75.7332 250.999L75.351 249.823C75.3082 249.907 75.2047 250.006 75.0405 250.121C74.879 250.23 74.6899 250.342 74.473 250.456C74.2549 250.566 74.0421 250.673 73.8345 250.775C73.6257 250.874 73.4512 250.957 73.3111 251.024C72.9807 251.18 72.6897 251.355 72.4379 251.551C72.1902 251.745 72.0127 251.967 71.9055 252.216C71.8009 252.461 71.8001 252.741 71.903 253.058C72.0459 253.498 72.3163 253.777 72.7145 253.898C73.1113 254.014 73.5612 253.99 74.0642 253.827Z" fill="black" style="fill:black;fill-opacity:1;"/>
<g clip-path="url(#clip2_14_62)">
<rect x="125.914" y="137.915" width="39.5785" height="8.79521" rx="4.39761" transform="rotate(-18 125.914 137.915)" fill="white" style="fill:white;fill-opacity:1;"/>
<rect x="132.368" y="157.782" width="39.5785" height="8.79521" rx="4.39761" transform="rotate(-18 132.368 157.782)" fill="white" style="fill:white;fill-opacity:1;"/>
<rect x="138.823" y="177.648" width="39.5785" height="8.79521" rx="4.39761" transform="rotate(-18 138.823 177.648)" fill="white" style="fill:white;fill-opacity:1;"/>
<rect x="145.278" y="197.514" width="39.5785" height="8.79521" rx="4.39761" transform="rotate(-18 145.278 197.514)" fill="white" style="fill:white;fill-opacity:1;"/>
<rect x="151.733" y="217.38" width="39.5785" height="8.79521" rx="4.39761" transform="rotate(-18 151.733 217.38)" fill="white" style="fill:white;fill-opacity:1;"/>
</g>
</g>
<rect x="2.31257" y="161.314" width="174.805" height="125.889" rx="10.4443" transform="rotate(-18 2.31257 161.314)" stroke="black" stroke-opacity="0.1" style="stroke:black;stroke-opacity:0.1;" stroke-width="1.0994" shape-rendering="crispEdges"/>
</g>
<g filter="url(#filter1_bd_14_62)">
<rect x="63.0859" y="2.80215" width="214.907" height="125.252" rx="10.994" transform="rotate(6 63.0859 2.80215)" fill="white" fill-opacity="0.6" style="fill:white;fill-opacity:0.6;" shape-rendering="crispEdges"/>
<rect x="63.5751" y="3.4063" width="213.807" height="124.153" rx="10.4443" transform="rotate(6 63.5751 3.4063)" stroke="black" stroke-opacity="0.1" style="stroke:black;stroke-opacity:0.1;" stroke-width="1.0994" shape-rendering="crispEdges"/>
<path fill-rule="evenodd" clip-rule="evenodd" d="M167.797 43.6966C165.345 43.4375 162.892 44.1682 160.976 45.7277C159.06 47.2873 157.838 49.548 157.581 52.0126C156.872 58.7914 154.954 63.1325 153.104 65.828C152.936 66.0724 152.769 66.3027 152.604 66.5196L177.938 69.196C177.821 68.9495 177.706 68.6893 177.592 68.4151C176.339 65.3918 175.362 60.7449 176.07 53.9661C176.328 51.5015 175.601 49.0349 174.05 47.109C172.498 45.1831 170.249 43.9556 167.797 43.6966ZM182.925 70.0533C182.923 70.0522 182.922 70.0507 182.92 70.0488C182.907 70.0366 182.876 70.0078 182.831 69.9614C182.742 69.8686 182.593 69.705 182.409 69.4624C182.04 68.9783 181.52 68.1735 181.025 66.9782C180.038 64.5974 179.117 60.5879 179.768 54.3567C180.129 50.9063 179.112 47.4531 176.939 44.7569C174.767 42.0606 171.619 40.3421 168.186 39.9795C164.753 39.6168 161.318 40.6397 158.636 42.8231C155.953 45.0065 154.244 48.1715 153.883 51.622C153.231 57.8531 151.501 61.5825 150.044 63.705C149.312 64.7708 148.637 65.4493 148.176 65.8458C147.945 66.0444 147.766 66.1735 147.659 66.2455C147.606 66.2815 147.57 66.3033 147.555 66.3125C147.552 66.3139 147.55 66.3151 147.549 66.3159C146.838 66.7035 146.457 67.5097 146.61 68.3099C146.764 69.1187 147.427 69.7308 148.242 69.8168L181.523 73.333C182.338 73.4191 183.113 72.9589 183.431 72.2C183.745 71.4491 183.54 70.581 182.925 70.0533Z" fill="black" style="fill:black;fill-opacity:1;"/>
<path fill-rule="evenodd" clip-rule="evenodd" d="M160.436 75.0958C161.382 74.6958 162.472 75.1428 162.87 76.0943C162.991 76.3843 163.188 76.6362 163.439 76.8238C163.69 77.0114 163.987 77.1276 164.298 77.1605C164.61 77.1934 164.924 77.1417 165.208 77.0107C165.493 76.8798 165.737 76.6744 165.916 76.4161C166.502 75.5686 167.661 75.3591 168.504 75.9482C169.347 76.5372 169.555 77.7018 168.969 78.5493C168.41 79.3572 167.646 79.9995 166.756 80.4091C165.866 80.8187 164.883 80.9805 163.91 80.8776C162.936 80.7748 162.008 80.4111 161.222 79.8244C160.436 79.2378 159.822 78.4498 159.442 77.5428C159.044 76.5913 159.489 75.4958 160.436 75.0958Z" fill="black" style="fill:black;fill-opacity:1;"/>
<path d="M111.489 105.368L112.826 92.6451L117.361 93.1218C118.351 93.2258 119.152 93.4922 119.764 93.9208C120.377 94.3495 120.812 94.8935 121.069 95.5528C121.327 96.208 121.415 96.9249 121.333 97.7035C121.251 98.4863 121.013 99.1732 120.62 99.7642C120.232 100.351 119.691 100.793 118.999 101.089C118.31 101.381 117.474 101.475 116.488 101.371L113.369 101.043L113.54 99.4157L116.485 99.7252C117.11 99.791 117.629 99.7366 118.041 99.5622C118.453 99.3836 118.77 99.1154 118.992 98.7577C119.214 98.4 119.35 97.9809 119.401 97.5005C119.451 97.02 119.405 96.5839 119.262 96.192C119.119 95.8001 118.862 95.4779 118.491 95.2253C118.123 94.9731 117.621 94.8136 116.983 94.7465L114.573 94.4932L113.409 105.57L111.489 105.368ZM122.53 106.529L123.533 96.9863L125.328 97.175L125.169 98.6908L125.268 98.7013C125.496 98.206 125.845 97.8344 126.315 97.5865C126.789 97.3349 127.306 97.2385 127.865 97.2972C127.981 97.3094 128.118 97.3279 128.274 97.3528C128.435 97.378 128.56 97.4016 128.65 97.4236L128.463 99.2004C128.391 99.1718 128.261 99.1351 128.073 99.0903C127.885 99.0412 127.696 99.0067 127.506 98.9867C127.067 98.9406 126.665 98.9926 126.302 99.1429C125.943 99.2894 125.647 99.5158 125.414 99.8221C125.181 100.124 125.043 100.482 125 100.897L124.387 106.724L122.53 106.529ZM131.913 107.728C131.309 107.665 130.774 107.495 130.308 107.22C129.844 106.941 129.491 106.571 129.25 106.111C129.014 105.65 128.929 105.107 128.995 104.482C129.051 103.944 129.201 103.511 129.445 103.185C129.689 102.859 129.997 102.613 130.37 102.447C130.744 102.281 131.153 102.169 131.599 102.111C132.045 102.054 132.496 102.022 132.953 102.015C133.532 102.009 134.001 102.004 134.362 102C134.723 101.992 134.989 101.946 135.161 101.864C135.333 101.782 135.431 101.629 135.455 101.405L135.459 101.361C135.516 100.819 135.407 100.382 135.132 100.052C134.861 99.7221 134.425 99.5255 133.825 99.4624C133.199 99.3967 132.692 99.4836 132.302 99.7232C131.917 99.9592 131.639 100.238 131.467 100.559L129.763 99.9777C130.031 99.4196 130.383 98.9834 130.818 98.669C131.257 98.3509 131.747 98.1386 132.285 98.0319C132.825 97.9211 133.382 97.8959 133.958 97.9564C134.339 97.9965 134.738 98.0845 135.155 98.2204C135.576 98.3527 135.961 98.5564 136.309 98.8316C136.661 99.1073 136.934 99.4773 137.128 99.9416C137.323 100.402 137.384 100.98 137.31 101.675L136.644 108.012L134.83 107.821L134.967 106.517L134.893 106.509C134.748 106.737 134.543 106.954 134.278 107.16C134.013 107.367 133.685 107.527 133.292 107.641C132.899 107.754 132.439 107.784 131.913 107.728ZM132.474 106.28C132.987 106.334 133.437 106.278 133.823 106.114C134.213 105.95 134.52 105.714 134.745 105.407C134.974 105.096 135.109 104.752 135.149 104.375L135.278 103.145C135.205 103.204 135.07 103.253 134.873 103.291C134.681 103.325 134.463 103.35 134.218 103.367C133.974 103.379 133.736 103.389 133.505 103.398C133.274 103.403 133.081 103.408 132.926 103.413C132.561 103.421 132.223 103.463 131.914 103.539C131.608 103.616 131.356 103.746 131.157 103.93C130.962 104.111 130.847 104.367 130.812 104.698C130.764 105.158 130.897 105.524 131.212 105.795C131.527 106.063 131.948 106.225 132.474 106.28ZM139.575 111.938C139.297 111.909 139.047 111.859 138.824 111.79C138.601 111.725 138.436 111.661 138.329 111.6L138.936 110.125C139.266 110.251 139.565 110.323 139.831 110.338C140.097 110.353 140.342 110.279 140.564 110.114C140.791 109.949 141.005 109.664 141.207 109.258L141.503 108.648L139.028 98.6149L141.016 98.8239L142.654 106.483L142.754 106.493L145.949 99.3423L147.943 99.5519L142.874 109.954C142.639 110.432 142.363 110.828 142.045 111.142C141.727 111.461 141.364 111.686 140.957 111.819C140.549 111.952 140.088 111.992 139.575 111.938ZM152.453 109.868C151.513 109.77 150.725 109.484 150.088 109.01C149.455 108.534 148.993 107.909 148.702 107.137C148.415 106.362 148.323 105.479 148.427 104.489C148.53 103.512 148.803 102.67 149.246 101.963C149.692 101.256 150.267 100.728 150.97 100.379C151.676 100.03 152.473 99.9024 153.359 99.9956C153.897 100.052 154.41 100.196 154.896 100.427C155.383 100.658 155.807 100.986 156.169 101.409C156.531 101.832 156.795 102.36 156.963 102.994C157.132 103.623 157.17 104.37 157.079 105.236L157.01 105.894L149.425 105.097L149.571 103.705L155.336 104.311C155.388 103.822 155.334 103.379 155.174 102.981C155.016 102.58 154.768 102.25 154.43 101.992C154.097 101.736 153.691 101.582 153.21 101.531C152.688 101.476 152.219 101.557 151.803 101.773C151.391 101.985 151.058 102.285 150.804 102.673C150.554 103.057 150.404 103.487 150.354 103.963L150.24 105.051C150.173 105.688 150.228 106.243 150.404 106.713C150.585 107.185 150.866 107.56 151.247 107.838C151.629 108.113 152.091 108.279 152.633 108.336C152.985 108.373 153.311 108.357 153.612 108.288C153.913 108.215 154.179 108.088 154.412 107.907C154.644 107.726 154.832 107.493 154.975 107.206L156.7 107.708C156.505 108.211 156.205 108.638 155.799 108.989C155.398 109.336 154.913 109.589 154.344 109.747C153.779 109.901 153.149 109.941 152.453 109.868ZM158.628 110.323L159.631 100.78L161.427 100.969L161.267 102.485L161.367 102.495C161.595 102 161.944 101.629 162.414 101.381C162.888 101.129 163.405 101.033 163.964 101.091C164.08 101.104 164.216 101.122 164.373 101.147C164.533 101.172 164.659 101.196 164.748 101.218L164.562 102.995C164.489 102.966 164.359 102.929 164.171 102.884C163.984 102.835 163.795 102.801 163.604 102.781C163.165 102.735 162.764 102.787 162.401 102.937C162.042 103.084 161.746 103.31 161.513 103.616C161.28 103.918 161.142 104.277 161.098 104.691L160.486 110.518L158.628 110.323ZM171.196 111.644L169.158 111.429L175.074 99.1877L177.292 99.4208L180.533 112.625L178.496 112.411L175.993 101.621L175.894 101.61L171.196 111.644ZM172.061 106.697L178.671 107.392L178.502 109.007L171.892 108.312L172.061 106.697ZM185.416 100.275L184.079 112.998L182.222 112.802L183.559 100.079L185.416 100.275ZM190.67 113.885C189.73 113.786 188.942 113.5 188.305 113.027C187.672 112.55 187.21 111.926 186.919 111.154C186.632 110.379 186.54 109.496 186.644 108.506C186.747 107.529 187.02 106.687 187.463 105.979C187.909 105.273 188.484 104.745 189.187 104.396C189.893 104.047 190.69 103.919 191.576 104.012C192.114 104.069 192.627 104.213 193.114 104.444C193.6 104.675 194.024 105.002 194.386 105.426C194.748 105.849 195.012 106.377 195.18 107.01C195.349 107.639 195.387 108.387 195.296 109.252L195.227 109.911L187.642 109.114L187.788 107.722L193.553 108.328C193.605 107.839 193.551 107.396 193.392 106.998C193.233 106.596 192.985 106.267 192.648 106.009C192.314 105.752 191.908 105.599 191.427 105.548C190.905 105.493 190.436 105.574 190.02 105.79C189.608 106.002 189.275 106.302 189.021 106.69C188.771 107.074 188.621 107.504 188.571 107.98L188.457 109.067C188.39 109.705 188.445 110.259 188.621 110.73C188.802 111.201 189.083 111.576 189.464 111.855C189.846 112.13 190.308 112.296 190.85 112.353C191.202 112.39 191.528 112.374 191.829 112.305C192.13 112.232 192.396 112.105 192.629 111.924C192.861 111.743 193.049 111.51 193.192 111.223L194.917 111.725C194.722 112.228 194.422 112.655 194.016 113.006C193.615 113.353 193.13 113.606 192.561 113.763C191.996 113.918 191.366 113.958 190.67 113.885ZM196.845 114.339L197.848 104.797L199.644 104.986L199.484 106.502L199.584 106.512C199.812 106.017 200.161 105.645 200.631 105.397C201.105 105.146 201.622 105.049 202.181 105.108C202.297 105.12 202.433 105.139 202.59 105.164C202.75 105.189 202.876 105.213 202.965 105.235L202.779 107.011C202.706 106.983 202.576 106.946 202.388 106.901C202.201 106.852 202.012 106.818 201.821 106.798C201.382 106.751 200.981 106.803 200.618 106.954C200.259 107.1 199.963 107.327 199.73 107.633C199.497 107.935 199.359 108.293 199.315 108.707L198.703 114.535L196.845 114.339ZM209.58 106.03L209.424 107.521L204.212 106.973L204.368 105.482L209.58 106.03ZM206.006 103.343L207.864 103.538L206.915 112.565C206.877 112.925 206.903 113.202 206.991 113.396C207.08 113.585 207.206 113.722 207.369 113.806C207.536 113.887 207.721 113.937 207.924 113.959C208.073 113.974 208.205 113.978 208.319 113.969C208.433 113.96 208.522 113.952 208.585 113.947L208.759 115.516C208.647 115.546 208.49 115.572 208.287 115.592C208.083 115.617 207.832 115.616 207.533 115.588C207.044 115.545 206.597 115.41 206.194 115.184C205.791 114.957 205.479 114.64 205.258 114.231C205.037 113.823 204.957 113.331 205.017 112.755L206.006 103.343Z" fill="black" style="fill:black;fill-opacity:1;"/>
</g>
<defs>
<filter id="filter0_bd_14_62" x="-20.3681" y="84.6156" width="250.512" height="219.106" filterUnits="userSpaceOnUse" color-interpolation-filters="sRGB">
<feFlood flood-opacity="0" result="BackgroundImageFix"/>
<feGaussianBlur in="BackgroundImageFix" stdDeviation="10.994"/>
<feComposite in2="SourceAlpha" operator="in" result="effect1_backgroundBlur_14_62"/>
<feColorMatrix in="SourceAlpha" type="matrix" values="0 0 0 0 0 0 0 0 0 0 0 0 0 0 0 0 0 0 127 0" result="hardAlpha"/>
<feOffset dy="4.39761"/>
<feGaussianBlur stdDeviation="2.1988"/>
<feComposite in2="hardAlpha" operator="out"/>
<feColorMatrix type="matrix" values="0 0 0 0 0 0 0 0 0 0 0 0 0 0 0 0 0 0 0.25 0"/>
<feBlend mode="normal" in2="effect1_backgroundBlur_14_62" result="effect2_dropShadow_14_62"/>
<feBlend mode="normal" in="SourceGraphic" in2="effect2_dropShadow_14_62" result="shape"/>
</filter>
<filter id="filter1_bd_14_62" x="28.0054" y="-19.1859" width="270.798" height="191.006" filterUnits="userSpaceOnUse" color-interpolation-filters="sRGB">
<feFlood flood-opacity="0" result="BackgroundImageFix"/>
<feGaussianBlur in="BackgroundImageFix" stdDeviation="10.994"/>
<feComposite in2="SourceAlpha" operator="in" result="effect1_backgroundBlur_14_62"/>
<feColorMatrix in="SourceAlpha" type="matrix" values="0 0 0 0 0 0 0 0 0 0 0 0 0 0 0 0 0 0 127 0" result="hardAlpha"/>
<feOffset dy="4.39761"/>
<feGaussianBlur stdDeviation="2.1988"/>
<feComposite in2="hardAlpha" operator="out"/>
<feColorMatrix type="matrix" values="0 0 0 0 0 0 0 0 0 0 0 0 0 0 0 0 0 0 0.25 0"/>
<feBlend mode="normal" in2="effect1_backgroundBlur_14_62" result="effect2_dropShadow_14_62"/>
<feBlend mode="normal" in="SourceGraphic" in2="effect2_dropShadow_14_62" result="shape"/>
</filter>
<linearGradient id="paint0_linear_14_62" x1="35.3577" y1="0" x2="35.3577" y2="146.431" gradientUnits="userSpaceOnUse">
<stop stop-color="#FF00D6" style="stop-color:#FF00D6;stop-color:color(display-p3 1.0000 0.0000 0.8400);stop-opacity:1;"/>
<stop offset="1" stop-color="#FF7A00" style="stop-color:#FF7A00;stop-color:color(display-p3 1.0000 0.4800 0.0000);stop-opacity:1;"/>
</linearGradient>
<clipPath id="clip0_14_62">
<rect width="45.715" height="22.1587" fill="white" style="fill:white;fill-opacity:1;" transform="matrix(0.978148 0.207912 -0.48481 0.87462 215.246 163.871)"/>
</clipPath>
<clipPath id="clip1_14_62">
<rect x="1.6199" y="160.961" width="175.904" height="126.988" rx="10.994" transform="rotate(-18 1.6199 160.961)" fill="white" style="fill:white;fill-opacity:1;"/>
</clipPath>
<clipPath id="clip2_14_62">
<rect width="39.5785" height="105" fill="white" style="fill:white;fill-opacity:1;" transform="translate(124.215 132.687) rotate(-18)"/>
</clipPath>
</defs>
</svg>
